SplineFontDB: 3.2
FontName: KenVector-Future
FullName: KenVector Future Regular
FamilyName: KenVector Future
Weight: Book
Copyright: Copyright Kenney 2013
FontLog: "Added Latin Small 'I' with macron+AAoACgAA-Add Latin small 'A' with macron"
Version: 1.0
ItalicAngle: 0
UnderlinePosition: 77
UnderlineWidth: 51
Ascent: 819
Descent: 205
InvalidEm: 0
sfntRevision: 0x00010000
LayerCount: 2
Layer: 0 1 "Back" 1
Layer: 1 1 "Fore" 0
XUID: [1021 9 -265212223 15718798]
StyleMap: 0x0040
FSType: 4
OS2Version: 2
OS2_WeightWidthSlopeOnly: 0
OS2_UseTypoMetrics: 0
CreationTime: 1384539643
ModificationTime: 1611964332
PfmFamily: 81
TTFWeight: 400
TTFWidth: 5
LineGap: 0
VLineGap: 0
Panose: 0 0 4 0 0 0 0 0 0 0
OS2TypoAscent: 640
OS2TypoAOffset: 0
OS2TypoDescent: 0
OS2TypoDOffset: 0
OS2TypoLinegap: 0
OS2WinAscent: 896
OS2WinAOffset: 0
OS2WinDescent: 256
OS2WinDOffset: 0
HheadAscent: 896
HheadAOffset: 0
HheadDescent: -256
HheadDOffset: 0
OS2SubXSize: 512
OS2SubYSize: 512
OS2SubXOff: 0
OS2SubYOff: 0
OS2SupXSize: 512
OS2SupYSize: 512
OS2SupXOff: 0
OS2SupYOff: 512
OS2StrikeYSize: 51
OS2StrikeYPos: 204
OS2CapHeight: 640
OS2XHeight: 640
OS2Vendor: 'FSTR'
OS2CodePages: 000001fb.00000000
OS2UnicodeRanges: a0000007.4000000a.00000000.00000000
DEI: 91125
ShortTable: maxp 16
  1
  0
  217
  123
  8
  0
  0
  2
  0
  0
  0
  0
  0
  0
  0
  0
EndShort
LangName: 1033 "" "" "Regular" "FontStruct KenVector Future" "" "Version 1.0" "" "FontStruct is a trademark of FSI FontShop International GmbH" "http://fontstruct.com" "Kenney" "+IBoAxAD6-KenVector Future+IBoAxAD5 was built with FontStruct+AAoA" "http://www.fontshop.com" "http://fontstruct.com/fontstructions/show/904375" "Creative Commons Attribution Share Alike" "http://creativecommons.org/licenses/by-sa/3.0/" "" "" "" "" "Five big quacking zephyrs jolt my wax bed"
Encoding: UnicodeBmp
UnicodeInterp: none
NameList: AGL For New Fonts
DisplaySize: -48
AntiAlias: 1
FitToEm: 0
WinInfo: 0 24 27
BeginChars: 65539 219

StartChar: .notdef
Encoding: 65536 -1 0
Width: 468
Flags: W
LayerCount: 2
Fore
SplineSet
320 90 m 1,0,-1
 320 192 l 1,1,-1
 218 192 l 1,2,-1
 218 90 l 1,3,-1
 320 90 l 1,0,-1
421 209 m 1,4,-1
 421 311 l 1,5,-1
 218 311 l 1,6,-1
 218 209 l 1,7,-1
 421 209 l 1,4,-1
320 328 m 1,8,-1
 320 430 l 1,9,-1
 218 430 l 1,10,-1
 218 328 l 1,11,-1
 320 328 l 1,8,-1
421 447 m 1,12,-1
 421 548 l 1,13,-1
 320 548 l 2,14,15
 277 548 277 548 248 519 c 0,16,17
 218 488 218 488 218 447 c 1,18,-1
 421 447 l 1,12,-1
0 0 m 1,19,-1
 0 640 l 1,20,-1
 640 640 l 1,21,-1
 640 0 l 1,22,-1
 0 0 l 1,19,-1
EndSplineSet
Validated: 1
EndChar

StartChar: exclam
Encoding: 33 33 4
Width: 596
Flags: W
LayerCount: 2
Fore
SplineSet
256 0 m 1,0,-1
 256 128 l 1,1,-1
 384 128 l 1,2,-1
 384 0 l 1,3,-1
 256 0 l 1,0,-1
256 256 m 1,4,-1
 256 640 l 1,5,-1
 384 640 l 1,6,-1
 384 256 l 1,7,-1
 256 256 l 1,4,-1
EndSplineSet
Validated: 1
EndChar

StartChar: quotedbl
Encoding: 34 34 5
Width: 596
Flags: W
LayerCount: 2
Fore
SplineSet
0 384 m 1,0,-1
 0 640 l 1,1,-1
 128 640 l 1,2,-1
 128 384 l 1,3,-1
 0 384 l 1,0,-1
256 384 m 1,4,-1
 256 640 l 1,5,-1
 384 640 l 1,6,-1
 384 384 l 1,7,-1
 256 384 l 1,4,-1
EndSplineSet
Validated: 1
EndChar

StartChar: numbersign
Encoding: 35 35 6
Width: 852
Flags: W
LayerCount: 2
Fore
SplineSet
384 256 m 1,0,-1
 384 384 l 1,1,-1
 256 384 l 1,2,-1
 256 256 l 1,3,-1
 384 256 l 1,0,-1
128 0 m 1,4,-1
 128 128 l 1,5,-1
 0 128 l 1,6,-1
 0 256 l 1,7,-1
 128 256 l 1,8,-1
 128 384 l 1,9,-1
 0 384 l 1,10,-1
 0 512 l 1,11,-1
 128 512 l 1,12,-1
 128 640 l 1,13,-1
 256 640 l 1,14,-1
 256 512 l 1,15,-1
 384 512 l 1,16,-1
 384 640 l 1,17,-1
 512 640 l 1,18,-1
 512 512 l 1,19,-1
 640 512 l 1,20,-1
 640 384 l 1,21,-1
 512 384 l 1,22,-1
 512 256 l 1,23,-1
 640 256 l 1,24,-1
 640 128 l 1,25,-1
 512 128 l 1,26,-1
 512 0 l 1,27,-1
 384 0 l 1,28,-1
 384 128 l 1,29,-1
 256 128 l 1,30,-1
 256 0 l 1,31,-1
 128 0 l 1,4,-1
EndSplineSet
Validated: 1
EndChar

StartChar: dollar
Encoding: 36 36 7
Width: 852
Flags: W
LayerCount: 2
Fore
SplineSet
512 128 m 1,0,-1
 512 256 l 1,1,-1
 384 256 l 1,2,-1
 384 128 l 1,3,-1
 512 128 l 1,0,-1
256 384 m 1,4,-1
 256 512 l 1,5,-1
 128 512 l 1,6,-1
 128 384 l 1,7,-1
 256 384 l 1,4,-1
0 0 m 1,8,-1
 0 128 l 1,9,-1
 256 128 l 1,10,-1
 256 256 l 1,11,-1
 128 256 l 2,12,13
 74 256 74 256 37 293 c 0,14,15
 0 331 0 331 0 384 c 2,16,-1
 0 512 l 2,17,18
 0 565 0 565 37 602 c 0,19,20
 75 640 75 640 128 640 c 2,21,-1
 640 640 l 1,22,-1
 640 512 l 1,23,-1
 384 512 l 1,24,-1
 384 384 l 1,25,-1
 512 384 l 2,26,27
 565 384 565 384 602 346 c 0,28,29
 640 308 640 308 640 256 c 2,30,-1
 640 128 l 2,31,32
 640 74 640 74 602 37 c 256,33,34
 564 0 564 0 512 0 c 2,35,-1
 0 0 l 1,8,-1
EndSplineSet
Validated: 1
EndChar

StartChar: percent
Encoding: 37 37 8
Width: 724
Flags: W
LayerCount: 2
Fore
SplineSet
384 0 m 1,0,-1
 384 128 l 1,1,-1
 512 128 l 1,2,-1
 512 0 l 1,3,-1
 384 0 l 1,0,-1
0 512 m 1,4,-1
 0 640 l 1,5,-1
 128 640 l 1,6,-1
 128 512 l 1,7,-1
 0 512 l 1,4,-1
0 0 m 1,8,-1
 0 256 l 2,9,10
 0 309 0 309 37 346 c 0,11,12
 75 384 75 384 128 384 c 2,13,-1
 384 384 l 1,14,-1
 384 640 l 1,15,-1
 512 640 l 1,16,-1
 512 384 l 2,17,18
 512 330 512 330 474 293 c 256,19,20
 436 256 436 256 384 256 c 2,21,-1
 128 256 l 1,22,-1
 128 0 l 1,23,-1
 0 0 l 1,8,-1
EndSplineSet
EndChar

StartChar: ampersand
Encoding: 38 38 9
Width: 852
Flags: W
LayerCount: 2
Fore
SplineSet
384 128 m 1,0,-1
 384 256 l 1,1,-1
 128 256 l 1,2,-1
 128 128 l 1,3,-1
 384 128 l 1,0,-1
384 384 m 1,4,-1
 384 512 l 1,5,-1
 256 512 l 1,6,-1
 256 384 l 1,7,-1
 384 384 l 1,4,-1
0 0 m 1,8,-1
 0 384 l 1,9,-1
 128 384 l 1,10,-1
 128 640 l 1,11,-1
 384 640 l 2,12,13
 437 640 437 640 474 602 c 0,14,15
 512 564 512 564 512 512 c 2,16,-1
 512 384 l 2,17,18
 512 357 512 357 493 338 c 0,19,20
 474 320 474 320 448 320 c 1,21,22
 474 320 474 320 493 301 c 256,23,24
 512 282 512 282 512 256 c 2,25,-1
 512 128 l 1,26,-1
 640 128 l 1,27,28
 640 74 640 74 602 37 c 256,29,30
 564 0 564 0 512 0 c 2,31,-1
 0 0 l 1,8,-1
EndSplineSet
Validated: 1
EndChar

StartChar: quotesingle
Encoding: 39 39 10
Width: 340
Flags: W
LayerCount: 2
Fore
SplineSet
0 384 m 1,0,-1
 0 640 l 1,1,-1
 128 640 l 1,2,-1
 128 384 l 1,3,-1
 0 384 l 1,0,-1
EndSplineSet
Validated: 1
EndChar

StartChar: parenleft
Encoding: 40 40 11
Width: 468
Flags: W
LayerCount: 2
Fore
SplineSet
128 0 m 2,0,1
 74 0 74 0 37 37 c 0,2,3
 0 75 0 75 0 128 c 2,4,-1
 0 512 l 2,5,6
 0 565 0 565 37 602 c 0,7,8
 75 640 75 640 128 640 c 2,9,-1
 256 640 l 1,10,-1
 256 512 l 1,11,-1
 128 512 l 1,12,-1
 128 128 l 1,13,-1
 256 128 l 1,14,-1
 256 0 l 1,15,-1
 128 0 l 2,0,1
EndSplineSet
Validated: 1
EndChar

StartChar: parenright
Encoding: 41 41 12
Width: 468
Flags: W
LayerCount: 2
Fore
SplineSet
0 0 m 1,0,-1
 0 128 l 1,1,-1
 128 128 l 1,2,-1
 128 512 l 1,3,-1
 0 512 l 1,4,-1
 0 640 l 1,5,-1
 128 640 l 2,6,7
 181 640 181 640 218 602 c 0,8,9
 256 564 256 564 256 512 c 2,10,-1
 256 128 l 2,11,12
 256 74 256 74 218 37 c 256,13,14
 180 0 180 0 128 0 c 2,15,-1
 0 0 l 1,0,-1
EndSplineSet
Validated: 1
EndChar

StartChar: asterisk
Encoding: 42 42 13
Width: 596
Flags: W
LayerCount: 2
Fore
SplineSet
128 256 m 1,0,-1
 128 384 l 1,1,2
 74 384 74 384 37 421 c 0,3,4
 0 459 0 459 0 512 c 1,5,-1
 128 512 l 1,6,7
 128 565 128 565 165 602 c 0,8,9
 203 640 203 640 256 640 c 1,10,-1
 256 512 l 1,11,12
 309 512 309 512 346 474 c 0,13,14
 384 436 384 436 384 384 c 1,15,-1
 256 384 l 1,16,17
 256 330 256 330 218 293 c 256,18,19
 180 256 180 256 128 256 c 1,20,-1
 128 256 l 1,0,-1
EndSplineSet
Validated: 5
EndChar

StartChar: plus
Encoding: 43 43 14
Width: 852
Flags: W
LayerCount: 2
Fore
SplineSet
256 0 m 1,0,-1
 256 256 l 1,1,-1
 0 256 l 1,2,-1
 0 384 l 1,3,-1
 256 384 l 1,4,-1
 256 640 l 1,5,-1
 384 640 l 1,6,-1
 384 384 l 1,7,-1
 640 384 l 1,8,-1
 640 256 l 1,9,-1
 384 256 l 1,10,-1
 384 0 l 1,11,-1
 256 0 l 1,0,-1
EndSplineSet
Validated: 1
EndChar

StartChar: comma
Encoding: 44 44 15
Width: 340
Flags: W
LayerCount: 2
Fore
SplineSet
0 -128 m 1,0,-1
 0 128 l 1,1,-1
 128 128 l 1,2,-1
 128 0 l 2,3,4
 128 -53 128 -53 90 -90 c 0,5,6
 52 -128 52 -128 0 -128 c 1,7,-1
 0 -128 l 1,0,-1
EndSplineSet
Validated: 5
EndChar

StartChar: hyphen
Encoding: 45 45 16
Width: 852
Flags: W
LayerCount: 2
Fore
SplineSet
0 256 m 1,0,-1
 0 384 l 1,1,-1
 640 384 l 1,2,-1
 640 256 l 1,3,-1
 0 256 l 1,0,-1
EndSplineSet
Validated: 1
EndChar

StartChar: period
Encoding: 46 46 17
Width: 340
Flags: W
LayerCount: 2
Fore
SplineSet
0 0 m 1,0,-1
 0 128 l 1,1,-1
 128 128 l 1,2,-1
 128 0 l 1,3,-1
 0 0 l 1,0,-1
EndSplineSet
Validated: 1
EndChar

StartChar: slash
Encoding: 47 47 18
Width: 468
Flags: W
LayerCount: 2
Fore
SplineSet
0 0 m 1,0,-1
 0 256 l 2,1,2
 0 309 0 309 37 346 c 0,3,4
 75 384 75 384 128 384 c 1,5,-1
 128 640 l 1,6,-1
 256 640 l 1,7,-1
 256 384 l 2,8,9
 256 330 256 330 218 293 c 256,10,11
 180 256 180 256 128 256 c 1,12,-1
 128 0 l 1,13,-1
 0 0 l 1,0,-1
EndSplineSet
Validated: 1
EndChar

StartChar: zero
Encoding: 48 48 19
Width: 852
Flags: W
LayerCount: 2
Fore
SplineSet
512 128 m 1,0,-1
 512 512 l 1,1,-1
 128 512 l 1,2,-1
 128 128 l 1,3,-1
 512 128 l 1,0,-1
128 0 m 2,4,5
 74 0 74 0 37 37 c 0,6,7
 0 75 0 75 0 128 c 2,8,-1
 0 512 l 2,9,10
 0 565 0 565 37 602 c 0,11,12
 75 640 75 640 128 640 c 2,13,-1
 512 640 l 2,14,15
 565 640 565 640 602 602 c 0,16,17
 640 564 640 564 640 512 c 2,18,-1
 640 128 l 2,19,20
 640 74 640 74 602 37 c 256,21,22
 564 0 564 0 512 0 c 2,23,-1
 128 0 l 2,4,5
EndSplineSet
Validated: 1
EndChar

StartChar: one
Encoding: 49 49 20
Width: 468
Flags: W
LayerCount: 2
Fore
SplineSet
128 0 m 1,0,-1
 128 512 l 1,1,-1
 0 512 l 1,2,-1
 0 640 l 1,3,-1
 128 640 l 2,4,5
 181 640 181 640 218 602 c 0,6,7
 256 564 256 564 256 512 c 2,8,-1
 256 0 l 1,9,-1
 128 0 l 1,0,-1
EndSplineSet
Validated: 1
EndChar

StartChar: two
Encoding: 50 50 21
Width: 852
Flags: W
LayerCount: 2
Fore
SplineSet
128 0 m 2,0,1
 74 0 74 0 37 37 c 0,2,3
 0 75 0 75 0 128 c 2,4,-1
 0 256 l 2,5,6
 0 309 0 309 37 346 c 0,7,8
 75 384 75 384 128 384 c 2,9,-1
 512 384 l 1,10,-1
 512 512 l 1,11,-1
 0 512 l 1,12,-1
 0 640 l 1,13,-1
 512 640 l 2,14,15
 565 640 565 640 602 602 c 0,16,17
 640 564 640 564 640 512 c 2,18,-1
 640 384 l 2,19,20
 640 330 640 330 602 293 c 256,21,22
 564 256 564 256 512 256 c 2,23,-1
 128 256 l 1,24,-1
 128 128 l 1,25,-1
 640 128 l 1,26,-1
 640 0 l 1,27,-1
 128 0 l 2,0,1
EndSplineSet
Validated: 1
EndChar

StartChar: three
Encoding: 51 51 22
Width: 852
Flags: W
LayerCount: 2
Fore
SplineSet
0 0 m 1,0,-1
 0 128 l 1,1,-1
 512 128 l 1,2,-1
 512 256 l 1,3,-1
 0 256 l 1,4,-1
 0 384 l 1,5,-1
 512 384 l 1,6,-1
 512 512 l 1,7,-1
 0 512 l 1,8,-1
 0 640 l 1,9,-1
 512 640 l 2,10,11
 565 640 565 640 602 602 c 0,12,13
 640 564 640 564 640 512 c 2,14,-1
 640 128 l 2,15,16
 640 74 640 74 602 37 c 256,17,18
 564 0 564 0 512 0 c 2,19,-1
 0 0 l 1,0,-1
EndSplineSet
Validated: 1
EndChar

StartChar: four
Encoding: 52 52 23
Width: 852
Flags: W
LayerCount: 2
Fore
SplineSet
512 0 m 1,0,-1
 512 256 l 1,1,-1
 128 256 l 2,2,3
 74 256 74 256 37 293 c 0,4,5
 0 331 0 331 0 384 c 2,6,-1
 0 640 l 1,7,-1
 128 640 l 1,8,-1
 128 384 l 1,9,-1
 512 384 l 1,10,-1
 512 640 l 1,11,-1
 640 640 l 1,12,-1
 640 0 l 1,13,-1
 512 0 l 1,0,-1
EndSplineSet
Validated: 1
EndChar

StartChar: five
Encoding: 53 53 24
Width: 852
Flags: W
LayerCount: 2
Fore
SplineSet
0 0 m 1,0,-1
 0 128 l 1,1,-1
 512 128 l 1,2,-1
 512 256 l 1,3,-1
 128 256 l 2,4,5
 74 256 74 256 37 293 c 0,6,7
 0 331 0 331 0 384 c 2,8,-1
 0 512 l 2,9,10
 0 565 0 565 37 602 c 0,11,12
 75 640 75 640 128 640 c 2,13,-1
 640 640 l 1,14,-1
 640 512 l 1,15,-1
 128 512 l 1,16,-1
 128 384 l 1,17,-1
 512 384 l 2,18,19
 565 384 565 384 602 346 c 0,20,21
 640 308 640 308 640 256 c 2,22,-1
 640 128 l 2,23,24
 640 74 640 74 602 37 c 256,25,26
 564 0 564 0 512 0 c 2,27,-1
 0 0 l 1,0,-1
EndSplineSet
Validated: 1
EndChar

StartChar: six
Encoding: 54 54 25
Width: 852
Flags: W
LayerCount: 2
Fore
SplineSet
512 128 m 1,0,-1
 512 256 l 1,1,-1
 128 256 l 1,2,-1
 128 128 l 1,3,-1
 512 128 l 1,0,-1
128 0 m 2,4,5
 74 0 74 0 37 37 c 0,6,7
 0 75 0 75 0 128 c 2,8,-1
 0 512 l 2,9,10
 0 565 0 565 37 602 c 0,11,12
 75 640 75 640 128 640 c 2,13,-1
 640 640 l 1,14,-1
 640 512 l 1,15,-1
 128 512 l 1,16,-1
 128 384 l 1,17,-1
 512 384 l 2,18,19
 565 384 565 384 602 346 c 0,20,21
 640 308 640 308 640 256 c 2,22,-1
 640 128 l 2,23,24
 640 74 640 74 602 37 c 256,25,26
 564 0 564 0 512 0 c 2,27,-1
 128 0 l 2,4,5
EndSplineSet
Validated: 1
EndChar

StartChar: seven
Encoding: 55 55 26
Width: 852
Flags: W
LayerCount: 2
Fore
SplineSet
512 0 m 1,0,-1
 512 512 l 1,1,-1
 0 512 l 1,2,-1
 0 640 l 1,3,-1
 512 640 l 2,4,5
 565 640 565 640 602 602 c 0,6,7
 640 564 640 564 640 512 c 2,8,-1
 640 0 l 1,9,-1
 512 0 l 1,0,-1
EndSplineSet
Validated: 1
EndChar

StartChar: eight
Encoding: 56 56 27
Width: 852
Flags: W
LayerCount: 2
Fore
SplineSet
512 128 m 1,0,-1
 512 256 l 1,1,-1
 128 256 l 1,2,-1
 128 128 l 1,3,-1
 512 128 l 1,0,-1
512 384 m 1,4,-1
 512 512 l 1,5,-1
 128 512 l 1,6,-1
 128 384 l 1,7,-1
 512 384 l 1,4,-1
128 0 m 2,8,9
 74 0 74 0 37 37 c 0,10,11
 0 75 0 75 0 128 c 2,12,-1
 0 512 l 2,13,14
 0 565 0 565 37 602 c 0,15,16
 75 640 75 640 128 640 c 2,17,-1
 512 640 l 2,18,19
 565 640 565 640 602 602 c 0,20,21
 640 564 640 564 640 512 c 2,22,-1
 640 128 l 2,23,24
 640 74 640 74 602 37 c 256,25,26
 564 0 564 0 512 0 c 2,27,-1
 128 0 l 2,8,9
EndSplineSet
Validated: 1
EndChar

StartChar: nine
Encoding: 57 57 28
Width: 852
Flags: W
LayerCount: 2
Fore
SplineSet
512 384 m 1,0,-1
 512 512 l 1,1,-1
 128 512 l 1,2,-1
 128 384 l 1,3,-1
 512 384 l 1,0,-1
0 0 m 1,4,-1
 0 128 l 1,5,-1
 512 128 l 1,6,-1
 512 256 l 1,7,-1
 128 256 l 2,8,9
 74 256 74 256 37 293 c 0,10,11
 0 331 0 331 0 384 c 2,12,-1
 0 512 l 2,13,14
 0 565 0 565 37 602 c 0,15,16
 75 640 75 640 128 640 c 2,17,-1
 512 640 l 2,18,19
 565 640 565 640 602 602 c 0,20,21
 640 564 640 564 640 512 c 2,22,-1
 640 128 l 2,23,24
 640 74 640 74 602 37 c 256,25,26
 564 0 564 0 512 0 c 2,27,-1
 0 0 l 1,4,-1
EndSplineSet
Validated: 1
EndChar

StartChar: colon
Encoding: 58 58 29
Width: 340
Flags: W
LayerCount: 2
Fore
SplineSet
0 0 m 1,0,-1
 0 128 l 1,1,-1
 128 128 l 1,2,-1
 128 0 l 1,3,-1
 0 0 l 1,0,-1
0 512 m 1,4,-1
 0 640 l 1,5,-1
 128 640 l 1,6,-1
 128 512 l 1,7,-1
 0 512 l 1,4,-1
EndSplineSet
Validated: 1
EndChar

StartChar: semicolon
Encoding: 59 59 30
Width: 340
Flags: W
LayerCount: 2
Fore
SplineSet
0 -128 m 1,0,-1
 0 128 l 1,1,-1
 128 128 l 1,2,-1
 128 0 l 2,3,4
 128 -53 128 -53 90 -90 c 0,5,6
 52 -128 52 -128 0 -128 c 1,7,-1
 0 -128 l 1,0,-1
0 512 m 1,8,-1
 0 640 l 1,9,-1
 128 640 l 1,10,-1
 128 512 l 1,11,-1
 0 512 l 1,8,-1
EndSplineSet
Validated: 5
EndChar

StartChar: less
Encoding: 60 60 31
Width: 596
Flags: W
LayerCount: 2
Fore
SplineSet
128 128 m 2,0,1
 74 128 74 128 37 165 c 0,2,3
 0 203 0 203 0 256 c 2,4,-1
 0 384 l 2,5,6
 0 437 0 437 37 474 c 0,7,8
 75 512 75 512 128 512 c 2,9,-1
 384 512 l 1,10,-1
 384 384 l 1,11,-1
 128 384 l 1,12,-1
 128 256 l 1,13,-1
 384 256 l 1,14,-1
 384 128 l 1,15,-1
 128 128 l 2,0,1
EndSplineSet
Validated: 1
EndChar

StartChar: equal
Encoding: 61 61 32
Width: 852
Flags: W
LayerCount: 2
Fore
SplineSet
0 128 m 1,0,-1
 0 256 l 1,1,-1
 640 256 l 1,2,-1
 640 128 l 1,3,-1
 0 128 l 1,0,-1
0 384 m 1,4,-1
 0 512 l 1,5,-1
 640 512 l 1,6,-1
 640 384 l 1,7,-1
 0 384 l 1,4,-1
EndSplineSet
Validated: 1
EndChar

StartChar: greater
Encoding: 62 62 33
Width: 596
Flags: W
LayerCount: 2
Fore
SplineSet
0 128 m 1,0,-1
 0 256 l 1,1,-1
 256 256 l 1,2,-1
 256 384 l 1,3,-1
 0 384 l 1,4,-1
 0 512 l 1,5,-1
 256 512 l 2,6,7
 309 512 309 512 346 474 c 0,8,9
 384 436 384 436 384 384 c 2,10,-1
 384 256 l 2,11,12
 384 202 384 202 346 165 c 256,13,14
 308 128 308 128 256 128 c 2,15,-1
 0 128 l 1,0,-1
EndSplineSet
Validated: 1
EndChar

StartChar: question
Encoding: 63 63 34
Width: 852
Flags: W
LayerCount: 2
Fore
SplineSet
256 0 m 1,0,-1
 256 128 l 1,1,-1
 384 128 l 1,2,-1
 384 0 l 1,3,-1
 256 0 l 1,0,-1
256 256 m 1,4,-1
 256 384 l 1,5,-1
 512 384 l 1,6,-1
 512 512 l 1,7,-1
 128 512 l 1,8,-1
 128 384 l 1,9,-1
 0 384 l 1,10,-1
 0 512 l 2,11,12
 0 565 0 565 37 602 c 0,13,14
 75 640 75 640 128 640 c 2,15,-1
 512 640 l 2,16,17
 565 640 565 640 602 602 c 0,18,19
 640 564 640 564 640 512 c 2,20,-1
 640 384 l 2,21,22
 640 330 640 330 602 293 c 256,23,24
 564 256 564 256 512 256 c 2,25,-1
 256 256 l 1,4,-1
EndSplineSet
Validated: 1
EndChar

StartChar: at
Encoding: 64 64 35
Width: 852
Flags: W
LayerCount: 2
Fore
SplineSet
0 0 m 1,0,-1
 0 512 l 2,1,2
 0 565 0 565 37 602 c 0,3,4
 75 640 75 640 128 640 c 2,5,-1
 512 640 l 2,6,7
 565 640 565 640 602 602 c 0,8,9
 640 564 640 564 640 512 c 2,10,-1
 640 128 l 2,11,12
 640 74 640 74 602 37 c 256,13,14
 564 0 564 0 512 0 c 2,15,-1
 384 0 l 2,16,17
 330 0 330 0 293 37 c 0,18,19
 256 75 256 75 256 128 c 2,20,-1
 256 384 l 1,21,-1
 384 384 l 1,22,-1
 384 128 l 1,23,-1
 512 128 l 1,24,-1
 512 512 l 1,25,-1
 128 512 l 1,26,-1
 128 0 l 1,27,-1
 0 0 l 1,0,-1
EndSplineSet
Validated: 1
EndChar

StartChar: A
Encoding: 65 65 36
Width: 852
Flags: W
LayerCount: 2
Fore
SplineSet
512 384 m 1,0,-1
 512 512 l 1,1,-1
 128 512 l 1,2,-1
 128 384 l 1,3,-1
 512 384 l 1,0,-1
0 0 m 1,4,-1
 0 512 l 2,5,6
 0 565 0 565 37 602 c 0,7,8
 75 640 75 640 128 640 c 2,9,-1
 512 640 l 2,10,11
 565 640 565 640 602 602 c 0,12,13
 640 564 640 564 640 512 c 2,14,-1
 640 0 l 1,15,-1
 512 0 l 1,16,-1
 512 256 l 1,17,-1
 128 256 l 1,18,-1
 128 0 l 1,19,-1
 0 0 l 1,4,-1
EndSplineSet
Validated: 1
EndChar

StartChar: B
Encoding: 66 66 37
Width: 852
Flags: W
LayerCount: 2
Fore
SplineSet
512 128 m 1,0,-1
 512 256 l 1,1,-1
 128 256 l 1,2,-1
 128 128 l 1,3,-1
 512 128 l 1,0,-1
512 384 m 1,4,-1
 512 512 l 1,5,-1
 128 512 l 1,6,-1
 128 384 l 1,7,-1
 512 384 l 1,4,-1
0 0 m 1,8,-1
 0 640 l 1,9,-1
 512 640 l 2,10,11
 565 640 565 640 602 602 c 0,12,13
 640 564 640 564 640 512 c 2,14,-1
 640 384 l 2,15,16
 640 357 640 357 621 338 c 0,17,18
 602 320 602 320 576 320 c 1,19,20
 602 320 602 320 621 301 c 256,21,22
 640 282 640 282 640 256 c 2,23,-1
 640 128 l 2,24,25
 640 74 640 74 602 37 c 256,26,27
 564 0 564 0 512 0 c 2,28,-1
 0 0 l 1,8,-1
EndSplineSet
Validated: 1
EndChar

StartChar: C
Encoding: 67 67 38
Width: 852
Flags: W
LayerCount: 2
Fore
SplineSet
128 0 m 2,0,1
 74 0 74 0 37 37 c 0,2,3
 0 75 0 75 0 128 c 2,4,-1
 0 512 l 2,5,6
 0 565 0 565 37 602 c 0,7,8
 75 640 75 640 128 640 c 2,9,-1
 512 640 l 2,10,11
 565 640 565 640 602 602 c 0,12,13
 640 564 640 564 640 512 c 2,14,-1
 640 384 l 1,15,-1
 512 384 l 1,16,-1
 512 512 l 1,17,-1
 128 512 l 1,18,-1
 128 128 l 1,19,-1
 512 128 l 1,20,-1
 512 256 l 1,21,-1
 640 256 l 1,22,-1
 640 128 l 2,23,24
 640 74 640 74 602 37 c 256,25,26
 564 0 564 0 512 0 c 2,27,-1
 128 0 l 2,0,1
EndSplineSet
Validated: 1
EndChar

StartChar: D
Encoding: 68 68 39
Width: 852
Flags: W
LayerCount: 2
Fore
SplineSet
512 128 m 1,0,-1
 512 512 l 1,1,-1
 128 512 l 1,2,-1
 128 128 l 1,3,-1
 512 128 l 1,0,-1
0 0 m 1,4,-1
 0 640 l 1,5,-1
 512 640 l 2,6,7
 565 640 565 640 602 602 c 0,8,9
 640 564 640 564 640 512 c 2,10,-1
 640 128 l 2,11,12
 640 74 640 74 602 37 c 256,13,14
 564 0 564 0 512 0 c 2,15,-1
 0 0 l 1,4,-1
EndSplineSet
Validated: 1
EndChar

StartChar: E
Encoding: 69 69 40
Width: 852
Flags: W
LayerCount: 2
Fore
SplineSet
128 0 m 2,0,1
 74 0 74 0 37 37 c 0,2,3
 0 75 0 75 0 128 c 2,4,-1
 0 512 l 2,5,6
 0 565 0 565 37 602 c 0,7,8
 75 640 75 640 128 640 c 2,9,-1
 640 640 l 1,10,-1
 640 512 l 1,11,-1
 128 512 l 1,12,-1
 128 384 l 1,13,-1
 640 384 l 1,14,-1
 640 256 l 1,15,-1
 128 256 l 1,16,-1
 128 128 l 1,17,-1
 640 128 l 1,18,-1
 640 0 l 1,19,-1
 128 0 l 2,0,1
EndSplineSet
Validated: 1
EndChar

StartChar: F
Encoding: 70 70 41
Width: 852
Flags: W
LayerCount: 2
Fore
SplineSet
0 0 m 1,0,-1
 0 512 l 2,1,2
 0 565 0 565 37 602 c 0,3,4
 75 640 75 640 128 640 c 2,5,-1
 640 640 l 1,6,-1
 640 512 l 1,7,-1
 128 512 l 1,8,-1
 128 384 l 1,9,-1
 640 384 l 1,10,-1
 640 256 l 1,11,-1
 128 256 l 1,12,-1
 128 0 l 1,13,-1
 0 0 l 1,0,-1
EndSplineSet
Validated: 1
EndChar

StartChar: G
Encoding: 71 71 42
Width: 852
Flags: W
LayerCount: 2
Fore
SplineSet
128 0 m 2,0,1
 74 0 74 0 37 37 c 0,2,3
 0 75 0 75 0 128 c 2,4,-1
 0 512 l 2,5,6
 0 565 0 565 37 602 c 0,7,8
 75 640 75 640 128 640 c 2,9,-1
 640 640 l 1,10,-1
 640 512 l 1,11,-1
 128 512 l 1,12,-1
 128 128 l 1,13,-1
 512 128 l 1,14,-1
 512 256 l 1,15,-1
 256 256 l 1,16,-1
 256 384 l 1,17,-1
 512 384 l 2,18,19
 565 384 565 384 602 346 c 0,20,21
 640 308 640 308 640 256 c 2,22,-1
 640 128 l 2,23,24
 640 74 640 74 602 37 c 256,25,26
 564 0 564 0 512 0 c 2,27,-1
 128 0 l 2,0,1
EndSplineSet
Validated: 1
EndChar

StartChar: H
Encoding: 72 72 43
Width: 852
Flags: W
LayerCount: 2
Fore
SplineSet
0 0 m 1,0,-1
 0 640 l 1,1,-1
 128 640 l 1,2,-1
 128 384 l 1,3,-1
 512 384 l 1,4,-1
 512 640 l 1,5,-1
 640 640 l 1,6,-1
 640 0 l 1,7,-1
 512 0 l 1,8,-1
 512 256 l 1,9,-1
 128 256 l 1,10,-1
 128 0 l 1,11,-1
 0 0 l 1,0,-1
EndSplineSet
Validated: 1
EndChar

StartChar: I
Encoding: 73 73 44
Width: 340
Flags: W
LayerCount: 2
Fore
SplineSet
0 0 m 1,0,-1
 0 640 l 1,1,-1
 128 640 l 1,2,-1
 128 0 l 1,3,-1
 0 0 l 1,0,-1
EndSplineSet
Validated: 1
EndChar

StartChar: J
Encoding: 74 74 45
Width: 724
Flags: W
LayerCount: 2
Fore
SplineSet
0 0 m 1,0,-1
 0 128 l 1,1,-1
 384 128 l 1,2,-1
 384 640 l 1,3,-1
 512 640 l 1,4,-1
 512 128 l 2,5,6
 512 74 512 74 474 37 c 256,7,8
 436 0 436 0 384 0 c 2,9,-1
 0 0 l 1,0,-1
EndSplineSet
Validated: 1
EndChar

StartChar: K
Encoding: 75 75 46
Width: 852
Flags: W
LayerCount: 2
Fore
SplineSet
0 0 m 1,0,-1
 0 640 l 1,1,-1
 128 640 l 1,2,-1
 128 384 l 1,3,-1
 512 384 l 1,4,-1
 512 640 l 1,5,-1
 640 640 l 1,6,-1
 640 384 l 2,7,8
 640 357 640 357 621 338 c 0,9,10
 602 320 602 320 576 320 c 1,11,12
 602 320 602 320 621 301 c 256,13,14
 640 282 640 282 640 256 c 2,15,-1
 640 0 l 1,16,-1
 512 0 l 1,17,-1
 512 256 l 1,18,-1
 128 256 l 1,19,-1
 128 0 l 1,20,-1
 0 0 l 1,0,-1
EndSplineSet
Validated: 1
EndChar

StartChar: L
Encoding: 76 76 47
Width: 852
Flags: W
LayerCount: 2
Fore
SplineSet
128 0 m 2,0,1
 74 0 74 0 37 37 c 0,2,3
 0 75 0 75 0 128 c 2,4,-1
 0 640 l 1,5,-1
 128 640 l 1,6,-1
 128 128 l 1,7,-1
 640 128 l 1,8,-1
 640 0 l 1,9,-1
 128 0 l 2,0,1
EndSplineSet
Validated: 1
EndChar

StartChar: M
Encoding: 77 77 48
Width: 1108
Flags: W
LayerCount: 2
Fore
SplineSet
0 0 m 1,0,-1
 0 640 l 1,1,-1
 768 640 l 2,2,3
 821 640 821 640 858 602 c 0,4,5
 896 564 896 564 896 512 c 2,6,-1
 896 0 l 1,7,-1
 768 0 l 1,8,-1
 768 512 l 1,9,-1
 512 512 l 1,10,-1
 512 0 l 1,11,-1
 384 0 l 1,12,-1
 384 512 l 1,13,-1
 128 512 l 1,14,-1
 128 0 l 1,15,-1
 0 0 l 1,0,-1
EndSplineSet
Validated: 1
EndChar

StartChar: N
Encoding: 78 78 49
Width: 852
Flags: W
LayerCount: 2
Fore
SplineSet
0 0 m 1,0,-1
 0 640 l 1,1,-1
 512 640 l 2,2,3
 565 640 565 640 602 602 c 0,4,5
 640 564 640 564 640 512 c 2,6,-1
 640 0 l 1,7,-1
 512 0 l 1,8,-1
 512 512 l 1,9,-1
 128 512 l 1,10,-1
 128 0 l 1,11,-1
 0 0 l 1,0,-1
EndSplineSet
Validated: 1
EndChar

StartChar: O
Encoding: 79 79 50
Width: 852
Flags: W
LayerCount: 2
Fore
SplineSet
512 128 m 1,0,-1
 512 512 l 1,1,-1
 128 512 l 1,2,-1
 128 128 l 1,3,-1
 512 128 l 1,0,-1
128 0 m 2,4,5
 74 0 74 0 37 37 c 0,6,7
 0 75 0 75 0 128 c 2,8,-1
 0 512 l 2,9,10
 0 565 0 565 37 602 c 0,11,12
 75 640 75 640 128 640 c 2,13,-1
 512 640 l 2,14,15
 565 640 565 640 602 602 c 0,16,17
 640 564 640 564 640 512 c 2,18,-1
 640 128 l 2,19,20
 640 74 640 74 602 37 c 256,21,22
 564 0 564 0 512 0 c 2,23,-1
 128 0 l 2,4,5
EndSplineSet
Validated: 1
EndChar

StartChar: P
Encoding: 80 80 51
Width: 852
Flags: W
LayerCount: 2
Fore
SplineSet
512 384 m 1,0,-1
 512 512 l 1,1,-1
 128 512 l 1,2,-1
 128 384 l 1,3,-1
 512 384 l 1,0,-1
0 0 m 1,4,-1
 0 640 l 1,5,-1
 512 640 l 2,6,7
 565 640 565 640 602 602 c 0,8,9
 640 564 640 564 640 512 c 2,10,-1
 640 384 l 2,11,12
 640 330 640 330 602 293 c 256,13,14
 564 256 564 256 512 256 c 2,15,-1
 128 256 l 1,16,-1
 128 0 l 1,17,-1
 0 0 l 1,4,-1
EndSplineSet
Validated: 1
EndChar

StartChar: Q
Encoding: 81 81 52
Width: 852
Flags: W
LayerCount: 2
Fore
SplineSet
384 128 m 1,0,1
 384 181 384 181 421 218 c 0,2,3
 459 256 459 256 512 256 c 1,4,-1
 512 512 l 1,5,-1
 128 512 l 1,6,-1
 128 128 l 1,7,-1
 384 128 l 1,0,1
128 0 m 2,8,9
 74 0 74 0 37 37 c 0,10,11
 0 75 0 75 0 128 c 2,12,-1
 0 512 l 2,13,14
 0 565 0 565 37 602 c 0,15,16
 75 640 75 640 128 640 c 2,17,-1
 512 640 l 2,18,19
 565 640 565 640 602 602 c 0,20,21
 640 564 640 564 640 512 c 2,22,-1
 640 128 l 1,23,24
 587 128 587 128 549 90 c 0,25,26
 512 52 512 52 512 0 c 1,27,-1
 128 0 l 2,8,9
EndSplineSet
Validated: 1
EndChar

StartChar: R
Encoding: 82 82 53
Width: 852
Flags: W
LayerCount: 2
Fore
SplineSet
512 384 m 1,0,-1
 512 512 l 1,1,-1
 128 512 l 1,2,-1
 128 384 l 1,3,-1
 512 384 l 1,0,-1
0 0 m 1,4,-1
 0 640 l 1,5,-1
 512 640 l 2,6,7
 565 640 565 640 602 602 c 0,8,9
 640 564 640 564 640 512 c 2,10,-1
 640 384 l 2,11,12
 640 357 640 357 621 338 c 0,13,14
 602 320 602 320 576 320 c 1,15,16
 602 320 602 320 621 301 c 256,17,18
 640 282 640 282 640 256 c 2,19,-1
 640 0 l 1,20,-1
 512 0 l 1,21,-1
 512 256 l 1,22,-1
 128 256 l 1,23,-1
 128 0 l 1,24,-1
 0 0 l 1,4,-1
EndSplineSet
Validated: 1
EndChar

StartChar: S
Encoding: 83 83 54
Width: 852
Flags: W
LayerCount: 2
Fore
SplineSet
0 0 m 1,0,-1
 0 128 l 1,1,-1
 512 128 l 1,2,-1
 512 256 l 1,3,-1
 128 256 l 2,4,5
 74 256 74 256 37 293 c 0,6,7
 0 331 0 331 0 384 c 2,8,-1
 0 512 l 2,9,10
 0 565 0 565 37 602 c 0,11,12
 75 640 75 640 128 640 c 2,13,-1
 640 640 l 1,14,-1
 640 512 l 1,15,-1
 128 512 l 1,16,-1
 128 384 l 1,17,-1
 512 384 l 2,18,19
 565 384 565 384 602 346 c 0,20,21
 640 308 640 308 640 256 c 2,22,-1
 640 128 l 2,23,24
 640 74 640 74 602 37 c 256,25,26
 564 0 564 0 512 0 c 2,27,-1
 0 0 l 1,0,-1
EndSplineSet
Validated: 1
EndChar

StartChar: T
Encoding: 84 84 55
Width: 852
Flags: W
LayerCount: 2
Fore
SplineSet
256 0 m 1,0,-1
 256 512 l 1,1,-1
 0 512 l 1,2,-1
 0 640 l 1,3,-1
 640 640 l 1,4,-1
 640 512 l 1,5,-1
 384 512 l 1,6,-1
 384 0 l 1,7,-1
 256 0 l 1,0,-1
EndSplineSet
Validated: 1
EndChar

StartChar: U
Encoding: 85 85 56
Width: 852
Flags: W
LayerCount: 2
Fore
SplineSet
128 0 m 2,0,1
 74 0 74 0 37 37 c 0,2,3
 0 75 0 75 0 128 c 2,4,-1
 0 640 l 1,5,-1
 128 640 l 1,6,-1
 128 128 l 1,7,-1
 512 128 l 1,8,-1
 512 640 l 1,9,-1
 640 640 l 1,10,-1
 640 0 l 1,11,-1
 128 0 l 2,0,1
EndSplineSet
Validated: 1
EndChar

StartChar: V
Encoding: 86 86 57
Width: 852
Flags: W
LayerCount: 2
Fore
SplineSet
128 0 m 2,0,1
 74 0 74 0 37 37 c 0,2,3
 0 75 0 75 0 128 c 2,4,-1
 0 640 l 1,5,-1
 128 640 l 1,6,-1
 128 128 l 1,7,-1
 512 128 l 1,8,-1
 512 640 l 1,9,-1
 640 640 l 1,10,-1
 640 128 l 2,11,12
 640 74 640 74 602 37 c 256,13,14
 564 0 564 0 512 0 c 2,15,-1
 128 0 l 2,0,1
EndSplineSet
Validated: 1
EndChar

StartChar: W
Encoding: 87 87 58
Width: 1108
Flags: W
LayerCount: 2
Fore
SplineSet
128 0 m 2,0,1
 74 0 74 0 37 37 c 0,2,3
 0 75 0 75 0 128 c 2,4,-1
 0 640 l 1,5,-1
 128 640 l 1,6,-1
 128 128 l 1,7,-1
 384 128 l 1,8,-1
 384 640 l 1,9,-1
 512 640 l 1,10,-1
 512 128 l 1,11,-1
 768 128 l 1,12,-1
 768 640 l 1,13,-1
 896 640 l 1,14,-1
 896 128 l 2,15,16
 896 74 896 74 858 37 c 256,17,18
 820 0 820 0 768 0 c 2,19,-1
 128 0 l 2,0,1
EndSplineSet
Validated: 1
EndChar

StartChar: X
Encoding: 88 88 59
Width: 852
Flags: W
LayerCount: 2
Fore
SplineSet
0 0 m 1,0,-1
 0 256 l 2,1,2
 0 282 0 282 18 301 c 0,3,4
 37 320 37 320 64 320 c 1,5,6
 37 320 37 320 18 338 c 0,7,8
 0 357 0 357 0 384 c 2,9,-1
 0 640 l 1,10,-1
 128 640 l 1,11,-1
 128 384 l 1,12,-1
 512 384 l 1,13,-1
 512 640 l 1,14,-1
 640 640 l 1,15,-1
 640 384 l 2,16,17
 640 357 640 357 621 338 c 0,18,19
 602 320 602 320 576 320 c 1,20,21
 602 320 602 320 621 301 c 256,22,23
 640 282 640 282 640 256 c 2,24,-1
 640 0 l 1,25,-1
 512 0 l 1,26,-1
 512 256 l 1,27,-1
 128 256 l 1,28,-1
 128 0 l 1,29,-1
 0 0 l 1,0,-1
EndSplineSet
Validated: 1
EndChar

StartChar: Y
Encoding: 89 89 60
Width: 852
Flags: W
LayerCount: 2
Fore
SplineSet
256 0 m 1,0,-1
 256 256 l 1,1,-1
 128 256 l 2,2,3
 74 256 74 256 37 293 c 0,4,5
 0 331 0 331 0 384 c 2,6,-1
 0 640 l 1,7,-1
 128 640 l 1,8,-1
 128 384 l 1,9,-1
 512 384 l 1,10,-1
 512 640 l 1,11,-1
 640 640 l 1,12,-1
 640 384 l 2,13,14
 640 330 640 330 602 293 c 256,15,16
 564 256 564 256 512 256 c 2,17,-1
 384 256 l 1,18,-1
 384 0 l 1,19,-1
 256 0 l 1,0,-1
EndSplineSet
Validated: 1
EndChar

StartChar: Z
Encoding: 90 90 61
Width: 852
Flags: W
LayerCount: 2
Fore
SplineSet
0 0 m 1,0,-1
 0 256 l 2,1,2
 0 309 0 309 37 346 c 0,3,4
 75 384 75 384 128 384 c 2,5,-1
 512 384 l 1,6,-1
 512 512 l 1,7,-1
 0 512 l 1,8,-1
 0 640 l 1,9,-1
 640 640 l 1,10,-1
 640 384 l 2,11,12
 640 330 640 330 602 293 c 256,13,14
 564 256 564 256 512 256 c 2,15,-1
 128 256 l 1,16,-1
 128 128 l 1,17,-1
 640 128 l 1,18,-1
 640 0 l 1,19,-1
 0 0 l 1,0,-1
EndSplineSet
Validated: 1
EndChar

StartChar: bracketleft
Encoding: 91 91 62
Width: 468
Flags: W
LayerCount: 2
Fore
SplineSet
0 0 m 1,0,-1
 0 640 l 1,1,-1
 256 640 l 1,2,-1
 256 512 l 1,3,-1
 128 512 l 1,4,-1
 128 128 l 1,5,-1
 256 128 l 1,6,-1
 256 0 l 1,7,-1
 0 0 l 1,0,-1
EndSplineSet
Validated: 1
EndChar

StartChar: backslash
Encoding: 92 92 63
Width: 468
Flags: W
LayerCount: 2
Fore
SplineSet
128 0 m 1,0,-1
 128 256 l 1,1,2
 74 256 74 256 37 293 c 0,3,4
 0 331 0 331 0 384 c 2,5,-1
 0 640 l 1,6,-1
 128 640 l 1,7,-1
 128 384 l 1,8,9
 181 384 181 384 218 346 c 0,10,11
 256 308 256 308 256 256 c 2,12,-1
 256 0 l 1,13,-1
 128 0 l 1,0,-1
EndSplineSet
Validated: 1
EndChar

StartChar: bracketright
Encoding: 93 93 64
Width: 468
Flags: W
LayerCount: 2
Fore
SplineSet
0 0 m 1,0,-1
 0 128 l 1,1,-1
 128 128 l 1,2,-1
 128 512 l 1,3,-1
 0 512 l 1,4,-1
 0 640 l 1,5,-1
 256 640 l 1,6,-1
 256 0 l 1,7,-1
 0 0 l 1,0,-1
EndSplineSet
Validated: 1
EndChar

StartChar: asciicircum
Encoding: 94 94 65
Width: 596
Flags: W
LayerCount: 2
Fore
SplineSet
0 384 m 1,0,-1
 0 512 l 2,1,2
 0 565 0 565 37 602 c 0,3,4
 75 640 75 640 128 640 c 2,5,-1
 256 640 l 2,6,7
 309 640 309 640 346 602 c 0,8,9
 384 564 384 564 384 512 c 2,10,-1
 384 384 l 1,11,-1
 256 384 l 1,12,-1
 256 512 l 1,13,-1
 128 512 l 1,14,-1
 128 384 l 1,15,-1
 0 384 l 1,0,-1
EndSplineSet
Validated: 1
EndChar

StartChar: underscore
Encoding: 95 95 66
Width: 852
Flags: W
LayerCount: 2
Fore
SplineSet
0 0 m 1,0,-1
 0 128 l 1,1,-1
 640 128 l 1,2,-1
 640 0 l 1,3,-1
 0 0 l 1,0,-1
EndSplineSet
Validated: 1
EndChar

StartChar: grave
Encoding: 96 96 67
Width: 340
Flags: W
LayerCount: 2
Fore
SplineSet
0 384 m 1,0,-1
 0 640 l 1,1,-1
 128 640 l 1,2,-1
 128 384 l 1,3,-1
 0 384 l 1,0,-1
EndSplineSet
Validated: 1
EndChar

StartChar: a
Encoding: 97 97 68
Width: 852
Flags: W
LayerCount: 2
Fore
SplineSet
512 384 m 1,0,-1
 512 512 l 1,1,-1
 128 512 l 1,2,-1
 128 384 l 1,3,-1
 512 384 l 1,0,-1
0 0 m 1,4,-1
 0 512 l 2,5,6
 0 565 0 565 37 602 c 0,7,8
 75 640 75 640 128 640 c 2,9,-1
 512 640 l 2,10,11
 565 640 565 640 602 602 c 0,12,13
 640 564 640 564 640 512 c 2,14,-1
 640 0 l 1,15,-1
 512 0 l 1,16,-1
 512 256 l 1,17,-1
 128 256 l 1,18,-1
 128 0 l 1,19,-1
 0 0 l 1,4,-1
EndSplineSet
Validated: 1
EndChar

StartChar: b
Encoding: 98 98 69
Width: 852
Flags: W
LayerCount: 2
Fore
SplineSet
512 128 m 1,0,-1
 512 256 l 1,1,-1
 128 256 l 1,2,-1
 128 128 l 1,3,-1
 512 128 l 1,0,-1
512 384 m 1,4,-1
 512 512 l 1,5,-1
 128 512 l 1,6,-1
 128 384 l 1,7,-1
 512 384 l 1,4,-1
0 0 m 1,8,-1
 0 640 l 1,9,-1
 512 640 l 2,10,11
 565 640 565 640 602 602 c 0,12,13
 640 564 640 564 640 512 c 2,14,-1
 640 384 l 2,15,16
 640 357 640 357 621 338 c 0,17,18
 602 320 602 320 576 320 c 1,19,20
 602 320 602 320 621 301 c 256,21,22
 640 282 640 282 640 256 c 2,23,-1
 640 128 l 2,24,25
 640 74 640 74 602 37 c 256,26,27
 564 0 564 0 512 0 c 2,28,-1
 0 0 l 1,8,-1
EndSplineSet
Validated: 1
EndChar

StartChar: c
Encoding: 99 99 70
Width: 852
Flags: W
LayerCount: 2
Fore
SplineSet
128 0 m 2,0,1
 74 0 74 0 37 37 c 0,2,3
 0 75 0 75 0 128 c 2,4,-1
 0 512 l 2,5,6
 0 565 0 565 37 602 c 0,7,8
 75 640 75 640 128 640 c 2,9,-1
 512 640 l 2,10,11
 565 640 565 640 602 602 c 0,12,13
 640 564 640 564 640 512 c 2,14,-1
 640 384 l 1,15,-1
 512 384 l 1,16,-1
 512 512 l 1,17,-1
 128 512 l 1,18,-1
 128 128 l 1,19,-1
 512 128 l 1,20,-1
 512 256 l 1,21,-1
 640 256 l 1,22,-1
 640 128 l 2,23,24
 640 74 640 74 602 37 c 256,25,26
 564 0 564 0 512 0 c 2,27,-1
 128 0 l 2,0,1
EndSplineSet
Validated: 1
EndChar

StartChar: d
Encoding: 100 100 71
Width: 852
Flags: W
LayerCount: 2
Fore
SplineSet
512 128 m 1,0,-1
 512 512 l 1,1,-1
 128 512 l 1,2,-1
 128 128 l 1,3,-1
 512 128 l 1,0,-1
0 0 m 1,4,-1
 0 640 l 1,5,-1
 512 640 l 2,6,7
 565 640 565 640 602 602 c 0,8,9
 640 564 640 564 640 512 c 2,10,-1
 640 128 l 2,11,12
 640 74 640 74 602 37 c 256,13,14
 564 0 564 0 512 0 c 2,15,-1
 0 0 l 1,4,-1
EndSplineSet
Validated: 1
EndChar

StartChar: e
Encoding: 101 101 72
Width: 852
Flags: W
LayerCount: 2
Fore
SplineSet
128 0 m 2,0,1
 74 0 74 0 37 37 c 0,2,3
 0 75 0 75 0 128 c 2,4,-1
 0 512 l 2,5,6
 0 565 0 565 37 602 c 0,7,8
 75 640 75 640 128 640 c 2,9,-1
 640 640 l 1,10,-1
 640 512 l 1,11,-1
 128 512 l 1,12,-1
 128 384 l 1,13,-1
 640 384 l 1,14,-1
 640 256 l 1,15,-1
 128 256 l 1,16,-1
 128 128 l 1,17,-1
 640 128 l 1,18,-1
 640 0 l 1,19,-1
 128 0 l 2,0,1
EndSplineSet
Validated: 1
EndChar

StartChar: f
Encoding: 102 102 73
Width: 852
Flags: W
LayerCount: 2
Fore
SplineSet
0 0 m 1,0,-1
 0 512 l 2,1,2
 0 565 0 565 37 602 c 0,3,4
 75 640 75 640 128 640 c 2,5,-1
 640 640 l 1,6,-1
 640 512 l 1,7,-1
 128 512 l 1,8,-1
 128 384 l 1,9,-1
 640 384 l 1,10,-1
 640 256 l 1,11,-1
 128 256 l 1,12,-1
 128 0 l 1,13,-1
 0 0 l 1,0,-1
EndSplineSet
Validated: 1
EndChar

StartChar: g
Encoding: 103 103 74
Width: 852
Flags: W
LayerCount: 2
Fore
SplineSet
128 0 m 2,0,1
 74 0 74 0 37 37 c 0,2,3
 0 75 0 75 0 128 c 2,4,-1
 0 512 l 2,5,6
 0 565 0 565 37 602 c 0,7,8
 75 640 75 640 128 640 c 2,9,-1
 640 640 l 1,10,-1
 640 512 l 1,11,-1
 128 512 l 1,12,-1
 128 128 l 1,13,-1
 512 128 l 1,14,-1
 512 256 l 1,15,-1
 256 256 l 1,16,-1
 256 384 l 1,17,-1
 512 384 l 2,18,19
 565 384 565 384 602 346 c 0,20,21
 640 308 640 308 640 256 c 2,22,-1
 640 128 l 2,23,24
 640 74 640 74 602 37 c 256,25,26
 564 0 564 0 512 0 c 2,27,-1
 128 0 l 2,0,1
EndSplineSet
Validated: 1
EndChar

StartChar: h
Encoding: 104 104 75
Width: 852
Flags: W
LayerCount: 2
Fore
SplineSet
0 0 m 1,0,-1
 0 640 l 1,1,-1
 128 640 l 1,2,-1
 128 384 l 1,3,-1
 512 384 l 1,4,-1
 512 640 l 1,5,-1
 640 640 l 1,6,-1
 640 0 l 1,7,-1
 512 0 l 1,8,-1
 512 256 l 1,9,-1
 128 256 l 1,10,-1
 128 0 l 1,11,-1
 0 0 l 1,0,-1
EndSplineSet
Validated: 1
EndChar

StartChar: i
Encoding: 105 105 76
Width: 340
Flags: W
LayerCount: 2
Fore
SplineSet
0 0 m 1,0,-1
 0 640 l 1,1,-1
 128 640 l 1,2,-1
 128 0 l 1,3,-1
 0 0 l 1,0,-1
EndSplineSet
Validated: 1
EndChar

StartChar: j
Encoding: 106 106 77
Width: 724
Flags: W
LayerCount: 2
Fore
SplineSet
0 0 m 1,0,-1
 0 128 l 1,1,-1
 384 128 l 1,2,-1
 384 640 l 1,3,-1
 512 640 l 1,4,-1
 512 128 l 2,5,6
 512 74 512 74 474 37 c 256,7,8
 436 0 436 0 384 0 c 2,9,-1
 0 0 l 1,0,-1
EndSplineSet
Validated: 1
EndChar

StartChar: k
Encoding: 107 107 78
Width: 852
Flags: W
LayerCount: 2
Fore
SplineSet
0 0 m 1,0,-1
 0 640 l 1,1,-1
 128 640 l 1,2,-1
 128 384 l 1,3,-1
 512 384 l 1,4,-1
 512 640 l 1,5,-1
 640 640 l 1,6,-1
 640 384 l 2,7,8
 640 357 640 357 621 338 c 0,9,10
 602 320 602 320 576 320 c 1,11,12
 602 320 602 320 621 301 c 256,13,14
 640 282 640 282 640 256 c 2,15,-1
 640 0 l 1,16,-1
 512 0 l 1,17,-1
 512 256 l 1,18,-1
 128 256 l 1,19,-1
 128 0 l 1,20,-1
 0 0 l 1,0,-1
EndSplineSet
Validated: 1
EndChar

StartChar: l
Encoding: 108 108 79
Width: 852
Flags: W
LayerCount: 2
Fore
SplineSet
128 0 m 2,0,1
 74 0 74 0 37 37 c 0,2,3
 0 75 0 75 0 128 c 2,4,-1
 0 640 l 1,5,-1
 128 640 l 1,6,-1
 128 128 l 1,7,-1
 640 128 l 1,8,-1
 640 0 l 1,9,-1
 128 0 l 2,0,1
EndSplineSet
Validated: 1
EndChar

StartChar: m
Encoding: 109 109 80
Width: 1108
Flags: W
LayerCount: 2
Fore
SplineSet
0 0 m 1,0,-1
 0 640 l 1,1,-1
 768 640 l 2,2,3
 821 640 821 640 858 602 c 0,4,5
 896 564 896 564 896 512 c 2,6,-1
 896 0 l 1,7,-1
 768 0 l 1,8,-1
 768 512 l 1,9,-1
 512 512 l 1,10,-1
 512 0 l 1,11,-1
 384 0 l 1,12,-1
 384 512 l 1,13,-1
 128 512 l 1,14,-1
 128 0 l 1,15,-1
 0 0 l 1,0,-1
EndSplineSet
Validated: 1
EndChar

StartChar: n
Encoding: 110 110 81
Width: 852
Flags: W
LayerCount: 2
Fore
SplineSet
0 0 m 1,0,-1
 0 640 l 1,1,-1
 512 640 l 2,2,3
 565 640 565 640 602 602 c 0,4,5
 640 564 640 564 640 512 c 2,6,-1
 640 0 l 1,7,-1
 512 0 l 1,8,-1
 512 512 l 1,9,-1
 128 512 l 1,10,-1
 128 0 l 1,11,-1
 0 0 l 1,0,-1
EndSplineSet
Validated: 1
EndChar

StartChar: o
Encoding: 111 111 82
Width: 852
Flags: W
LayerCount: 2
Fore
SplineSet
512 128 m 1,0,-1
 512 512 l 1,1,-1
 128 512 l 1,2,-1
 128 128 l 1,3,-1
 512 128 l 1,0,-1
128 0 m 2,4,5
 74 0 74 0 37 37 c 0,6,7
 0 75 0 75 0 128 c 2,8,-1
 0 512 l 2,9,10
 0 565 0 565 37 602 c 0,11,12
 75 640 75 640 128 640 c 2,13,-1
 512 640 l 2,14,15
 565 640 565 640 602 602 c 0,16,17
 640 564 640 564 640 512 c 2,18,-1
 640 128 l 2,19,20
 640 74 640 74 602 37 c 256,21,22
 564 0 564 0 512 0 c 2,23,-1
 128 0 l 2,4,5
EndSplineSet
Validated: 1
EndChar

StartChar: p
Encoding: 112 112 83
Width: 852
Flags: W
LayerCount: 2
Fore
SplineSet
512 384 m 1,0,-1
 512 512 l 1,1,-1
 128 512 l 1,2,-1
 128 384 l 1,3,-1
 512 384 l 1,0,-1
0 0 m 1,4,-1
 0 512 l 2,5,6
 0 565 0 565 37 602 c 0,7,8
 75 640 75 640 128 640 c 2,9,-1
 512 640 l 2,10,11
 565 640 565 640 602 602 c 0,12,13
 640 564 640 564 640 512 c 2,14,-1
 640 384 l 2,15,16
 640 330 640 330 602 293 c 256,17,18
 564 256 564 256 512 256 c 2,19,-1
 128 256 l 1,20,-1
 128 0 l 1,21,-1
 0 0 l 1,4,-1
EndSplineSet
Validated: 1
EndChar

StartChar: q
Encoding: 113 113 84
Width: 852
Flags: W
LayerCount: 2
Fore
SplineSet
512 128 m 1,0,-1
 512 512 l 1,1,-1
 128 512 l 1,2,-1
 128 128 l 1,3,-1
 512 128 l 1,0,-1
512 -128 m 1,4,-1
 512 0 l 1,5,-1
 128 0 l 2,6,7
 74 0 74 0 37 37 c 0,8,9
 0 75 0 75 0 128 c 2,10,-1
 0 512 l 2,11,12
 0 565 0 565 37 602 c 0,13,14
 75 640 75 640 128 640 c 2,15,-1
 512 640 l 2,16,17
 565 640 565 640 602 602 c 0,18,19
 640 564 640 564 640 512 c 2,20,-1
 640 -128 l 1,21,-1
 512 -128 l 1,4,-1
EndSplineSet
Validated: 1
EndChar

StartChar: r
Encoding: 114 114 85
Width: 852
Flags: W
LayerCount: 2
Fore
SplineSet
512 384 m 1,0,-1
 512 512 l 1,1,-1
 128 512 l 1,2,-1
 128 384 l 1,3,-1
 512 384 l 1,0,-1
0 0 m 1,4,-1
 0 640 l 1,5,-1
 512 640 l 2,6,7
 565 640 565 640 602 602 c 0,8,9
 640 564 640 564 640 512 c 2,10,-1
 640 384 l 2,11,12
 640 357 640 357 621 338 c 0,13,14
 602 320 602 320 576 320 c 1,15,16
 602 320 602 320 621 301 c 256,17,18
 640 282 640 282 640 256 c 2,19,-1
 640 0 l 1,20,-1
 512 0 l 1,21,-1
 512 256 l 1,22,-1
 128 256 l 1,23,-1
 128 0 l 1,24,-1
 0 0 l 1,4,-1
EndSplineSet
Validated: 1
EndChar

StartChar: s
Encoding: 115 115 86
Width: 852
Flags: W
LayerCount: 2
Fore
SplineSet
0 0 m 1,0,-1
 0 128 l 1,1,-1
 512 128 l 1,2,-1
 512 256 l 1,3,-1
 128 256 l 2,4,5
 74 256 74 256 37 293 c 0,6,7
 0 331 0 331 0 384 c 2,8,-1
 0 512 l 2,9,10
 0 565 0 565 37 602 c 0,11,12
 75 640 75 640 128 640 c 2,13,-1
 640 640 l 1,14,-1
 640 512 l 1,15,-1
 128 512 l 1,16,-1
 128 384 l 1,17,-1
 512 384 l 2,18,19
 565 384 565 384 602 346 c 0,20,21
 640 308 640 308 640 256 c 2,22,-1
 640 128 l 2,23,24
 640 74 640 74 602 37 c 256,25,26
 564 0 564 0 512 0 c 2,27,-1
 0 0 l 1,0,-1
EndSplineSet
Validated: 1
EndChar

StartChar: t
Encoding: 116 116 87
Width: 852
Flags: W
LayerCount: 2
Fore
SplineSet
256 0 m 1,0,-1
 256 512 l 1,1,-1
 0 512 l 1,2,-1
 0 640 l 1,3,-1
 640 640 l 1,4,-1
 640 512 l 1,5,-1
 384 512 l 1,6,-1
 384 0 l 1,7,-1
 256 0 l 1,0,-1
EndSplineSet
Validated: 1
EndChar

StartChar: u
Encoding: 117 117 88
Width: 852
Flags: W
LayerCount: 2
Fore
SplineSet
128 0 m 2,0,1
 74 0 74 0 37 37 c 0,2,3
 0 75 0 75 0 128 c 2,4,-1
 0 640 l 1,5,-1
 128 640 l 1,6,-1
 128 128 l 1,7,-1
 512 128 l 1,8,-1
 512 640 l 1,9,-1
 640 640 l 1,10,-1
 640 0 l 1,11,-1
 128 0 l 2,0,1
EndSplineSet
Validated: 1
EndChar

StartChar: v
Encoding: 118 118 89
Width: 852
Flags: W
LayerCount: 2
Fore
SplineSet
128 0 m 2,0,1
 74 0 74 0 37 37 c 0,2,3
 0 75 0 75 0 128 c 2,4,-1
 0 640 l 1,5,-1
 128 640 l 1,6,-1
 128 128 l 1,7,-1
 512 128 l 1,8,-1
 512 640 l 1,9,-1
 640 640 l 1,10,-1
 640 128 l 2,11,12
 640 74 640 74 602 37 c 256,13,14
 564 0 564 0 512 0 c 2,15,-1
 128 0 l 2,0,1
EndSplineSet
Validated: 1
EndChar

StartChar: w
Encoding: 119 119 90
Width: 1108
Flags: W
LayerCount: 2
Fore
SplineSet
128 0 m 2,0,1
 74 0 74 0 37 37 c 0,2,3
 0 75 0 75 0 128 c 2,4,-1
 0 640 l 1,5,-1
 128 640 l 1,6,-1
 128 128 l 1,7,-1
 384 128 l 1,8,-1
 384 640 l 1,9,-1
 512 640 l 1,10,-1
 512 128 l 1,11,-1
 768 128 l 1,12,-1
 768 640 l 1,13,-1
 896 640 l 1,14,-1
 896 128 l 2,15,16
 896 74 896 74 858 37 c 256,17,18
 820 0 820 0 768 0 c 2,19,-1
 128 0 l 2,0,1
EndSplineSet
Validated: 1
EndChar

StartChar: x
Encoding: 120 120 91
Width: 852
Flags: W
LayerCount: 2
Fore
SplineSet
0 0 m 1,0,-1
 0 256 l 2,1,2
 0 282 0 282 18 301 c 0,3,4
 37 320 37 320 64 320 c 1,5,6
 37 320 37 320 18 338 c 0,7,8
 0 357 0 357 0 384 c 2,9,-1
 0 640 l 1,10,-1
 128 640 l 1,11,-1
 128 384 l 1,12,-1
 512 384 l 1,13,-1
 512 640 l 1,14,-1
 640 640 l 1,15,-1
 640 384 l 2,16,17
 640 357 640 357 621 338 c 0,18,19
 602 320 602 320 576 320 c 1,20,21
 602 320 602 320 621 301 c 256,22,23
 640 282 640 282 640 256 c 2,24,-1
 640 0 l 1,25,-1
 512 0 l 1,26,-1
 512 256 l 1,27,-1
 128 256 l 1,28,-1
 128 0 l 1,29,-1
 0 0 l 1,0,-1
EndSplineSet
Validated: 1
EndChar

StartChar: y
Encoding: 121 121 92
Width: 852
Flags: W
LayerCount: 2
Fore
SplineSet
256 0 m 1,0,-1
 256 256 l 1,1,-1
 128 256 l 2,2,3
 74 256 74 256 37 293 c 0,4,5
 0 331 0 331 0 384 c 2,6,-1
 0 640 l 1,7,-1
 128 640 l 1,8,-1
 128 384 l 1,9,-1
 512 384 l 1,10,-1
 512 640 l 1,11,-1
 640 640 l 1,12,-1
 640 384 l 2,13,14
 640 330 640 330 602 293 c 256,15,16
 564 256 564 256 512 256 c 2,17,-1
 384 256 l 1,18,-1
 384 0 l 1,19,-1
 256 0 l 1,0,-1
EndSplineSet
Validated: 1
EndChar

StartChar: z
Encoding: 122 122 93
Width: 852
Flags: W
LayerCount: 2
Fore
SplineSet
0 0 m 1,0,-1
 0 256 l 2,1,2
 0 309 0 309 37 346 c 0,3,4
 75 384 75 384 128 384 c 2,5,-1
 512 384 l 1,6,-1
 512 512 l 1,7,-1
 0 512 l 1,8,-1
 0 640 l 1,9,-1
 640 640 l 1,10,-1
 640 384 l 2,11,12
 640 330 640 330 602 293 c 256,13,14
 564 256 564 256 512 256 c 2,15,-1
 128 256 l 1,16,-1
 128 128 l 1,17,-1
 640 128 l 1,18,-1
 640 0 l 1,19,-1
 0 0 l 1,0,-1
EndSplineSet
Validated: 1
EndChar

StartChar: braceleft
Encoding: 123 123 94
Width: 596
Flags: W
LayerCount: 2
Fore
SplineSet
256 0 m 2,0,1
 202 0 202 0 165 37 c 0,2,3
 128 75 128 75 128 128 c 2,4,-1
 128 256 l 1,5,6
 101 256 101 256 82 274 c 0,7,8
 64 293 64 293 64 320 c 0,9,10
 64 346 64 346 82 365 c 0,11,12
 101 384 101 384 128 384 c 1,13,-1
 128 512 l 2,14,15
 128 565 128 565 165 602 c 0,16,17
 203 640 203 640 256 640 c 2,18,-1
 384 640 l 1,19,-1
 384 512 l 1,20,-1
 256 512 l 1,21,-1
 256 128 l 1,22,-1
 384 128 l 1,23,-1
 384 0 l 1,24,-1
 256 0 l 2,0,1
EndSplineSet
Validated: 1
EndChar

StartChar: bar
Encoding: 124 124 95
Width: 340
Flags: W
LayerCount: 2
Fore
SplineSet
0 0 m 1,0,-1
 0 640 l 1,1,-1
 128 640 l 1,2,-1
 128 0 l 1,3,-1
 0 0 l 1,0,-1
EndSplineSet
Validated: 1
EndChar

StartChar: braceright
Encoding: 125 125 96
Width: 596
Flags: W
LayerCount: 2
Fore
SplineSet
0 0 m 1,0,-1
 0 128 l 1,1,-1
 128 128 l 1,2,-1
 128 512 l 1,3,-1
 0 512 l 1,4,-1
 0 640 l 1,5,-1
 128 640 l 2,6,7
 181 640 181 640 218 602 c 0,8,9
 256 564 256 564 256 512 c 2,10,-1
 256 384 l 1,11,12
 282 384 282 384 301 365 c 256,13,14
 320 346 320 346 320 320 c 0,15,16
 320 293 320 293 301 274 c 0,17,18
 282 256 282 256 256 256 c 1,19,-1
 256 128 l 2,20,21
 256 74 256 74 218 37 c 256,22,23
 180 0 180 0 128 0 c 2,24,-1
 0 0 l 1,0,-1
EndSplineSet
Validated: 1
EndChar

StartChar: asciitilde
Encoding: 126 126 97
Width: 852
Flags: W
LayerCount: 2
Fore
SplineSet
0 256 m 1,0,-1
 0 384 l 2,1,2
 0 437 0 437 37 474 c 0,3,4
 75 512 75 512 128 512 c 2,5,-1
 256 512 l 2,6,7
 309 512 309 512 346 474 c 0,8,9
 384 436 384 436 384 384 c 1,10,-1
 512 384 l 1,11,-1
 512 512 l 1,12,-1
 640 512 l 1,13,-1
 640 384 l 2,14,15
 640 330 640 330 602 293 c 256,16,17
 564 256 564 256 512 256 c 2,18,-1
 384 256 l 2,19,20
 330 256 330 256 293 293 c 0,21,22
 256 331 256 331 256 384 c 1,23,-1
 128 384 l 1,24,-1
 128 256 l 1,25,-1
 0 256 l 1,0,-1
EndSplineSet
Validated: 1
EndChar

StartChar: exclamdown
Encoding: 161 161 98
Width: 340
Flags: W
LayerCount: 2
Fore
SplineSet
0 0 m 1,0,-1
 0 384 l 1,1,-1
 128 384 l 1,2,-1
 128 0 l 1,3,-1
 0 0 l 1,0,-1
0 512 m 1,4,-1
 0 640 l 1,5,-1
 128 640 l 1,6,-1
 128 512 l 1,7,-1
 0 512 l 1,4,-1
EndSplineSet
Validated: 1
EndChar

StartChar: cent
Encoding: 162 162 99
Width: 596
Flags: W
LayerCount: 2
Fore
SplineSet
128 0 m 1,0,-1
 128 128 l 1,1,2
 74 128 74 128 37 165 c 0,3,4
 0 203 0 203 0 256 c 2,5,-1
 0 384 l 2,6,7
 0 437 0 437 37 474 c 0,8,9
 75 512 75 512 128 512 c 1,10,-1
 128 640 l 1,11,-1
 256 640 l 1,12,-1
 256 512 l 1,13,14
 309 512 309 512 346 474 c 0,15,16
 384 436 384 436 384 384 c 1,17,-1
 128 384 l 1,18,-1
 128 256 l 1,19,-1
 384 256 l 1,20,21
 384 202 384 202 346 165 c 256,22,23
 308 128 308 128 256 128 c 1,24,-1
 256 0 l 1,25,-1
 128 0 l 1,0,-1
EndSplineSet
Validated: 1
EndChar

StartChar: sterling
Encoding: 163 163 100
Width: 852
Flags: W
LayerCount: 2
Fore
SplineSet
0 0 m 1,0,-1
 0 256 l 1,1,-1
 -128 256 l 1,2,-1
 -128 384 l 1,3,-1
 0 384 l 1,4,-1
 0 512 l 2,5,6
 0 565 0 565 37 602 c 0,7,8
 75 640 75 640 128 640 c 2,9,-1
 384 640 l 2,10,11
 437 640 437 640 474 602 c 0,12,13
 512 564 512 564 512 512 c 1,14,-1
 128 512 l 1,15,-1
 128 384 l 1,16,-1
 384 384 l 1,17,-1
 384 256 l 1,18,-1
 128 256 l 1,19,-1
 128 128 l 1,20,-1
 640 128 l 1,21,-1
 640 0 l 1,22,-1
 0 0 l 1,0,-1
EndSplineSet
Validated: 1
EndChar

StartChar: currency
Encoding: 164 164 101
Width: 852
Flags: W
LayerCount: 2
Fore
SplineSet
0 0 m 1,0,-1
 0 128 l 1,1,-1
 128 128 l 1,2,-1
 128 0 l 1,3,-1
 0 0 l 1,0,-1
512 0 m 1,4,-1
 512 128 l 1,5,-1
 640 128 l 1,6,-1
 640 0 l 1,7,-1
 512 0 l 1,4,-1
384 256 m 1,8,-1
 384 384 l 1,9,-1
 256 384 l 1,10,-1
 256 256 l 1,11,-1
 384 256 l 1,8,-1
256 128 m 2,12,13
 202 128 202 128 165 165 c 0,14,15
 128 203 128 203 128 256 c 2,16,-1
 128 384 l 2,17,18
 128 437 128 437 165 474 c 0,19,20
 203 512 203 512 256 512 c 2,21,-1
 384 512 l 2,22,23
 437 512 437 512 474 474 c 0,24,25
 512 436 512 436 512 384 c 2,26,-1
 512 256 l 2,27,28
 512 202 512 202 474 165 c 256,29,30
 436 128 436 128 384 128 c 2,31,-1
 256 128 l 2,12,13
0 512 m 1,32,-1
 0 640 l 1,33,-1
 128 640 l 1,34,-1
 128 512 l 1,35,-1
 0 512 l 1,32,-1
512 512 m 1,36,-1
 512 640 l 1,37,-1
 640 640 l 1,38,-1
 640 512 l 1,39,-1
 512 512 l 1,36,-1
EndSplineSet
Validated: 1
EndChar

StartChar: yen
Encoding: 165 165 102
Width: 852
Flags: W
LayerCount: 2
Fore
SplineSet
256 0 m 1,0,-1
 256 128 l 1,1,-1
 128 128 l 1,2,3
 128 181 128 181 165 218 c 0,4,5
 203 256 203 256 256 256 c 2,6,-1
 128 256 l 2,7,8
 74 256 74 256 37 293 c 0,9,10
 0 331 0 331 0 384 c 2,11,-1
 0 640 l 1,12,-1
 128 640 l 1,13,-1
 128 384 l 1,14,-1
 512 384 l 1,15,-1
 512 640 l 1,16,-1
 640 640 l 1,17,-1
 640 384 l 2,18,19
 640 330 640 330 602 293 c 256,20,21
 564 256 564 256 512 256 c 2,22,-1
 384 256 l 2,23,24
 437 256 437 256 474 218 c 0,25,26
 512 180 512 180 512 128 c 1,27,-1
 384 128 l 1,28,-1
 384 0 l 1,29,-1
 256 0 l 1,0,-1
EndSplineSet
Validated: 1
EndChar

StartChar: brokenbar
Encoding: 166 166 103
Width: 340
Flags: W
LayerCount: 2
Fore
SplineSet
0 0 m 1,0,-1
 0 256 l 1,1,-1
 128 256 l 1,2,-1
 128 0 l 1,3,-1
 0 0 l 1,0,-1
0 384 m 1,4,-1
 0 640 l 1,5,-1
 128 640 l 1,6,-1
 128 384 l 1,7,-1
 0 384 l 1,4,-1
EndSplineSet
Validated: 1
EndChar

StartChar: section
Encoding: 167 167 104
Width: 852
Flags: W
LayerCount: 2
Fore
SplineSet
0 0 m 1,0,-1
 0 128 l 1,1,-1
 512 128 l 1,2,-1
 512 256 l 1,3,-1
 384 256 l 1,4,-1
 384 384 l 1,5,-1
 512 384 l 2,6,7
 565 384 565 384 602 346 c 0,8,9
 640 308 640 308 640 256 c 2,10,-1
 640 128 l 2,11,12
 640 74 640 74 602 37 c 256,13,14
 564 0 564 0 512 0 c 2,15,-1
 0 0 l 1,0,-1
128 256 m 2,16,17
 74 256 74 256 37 293 c 0,18,19
 0 331 0 331 0 384 c 2,20,-1
 0 512 l 2,21,22
 0 565 0 565 37 602 c 0,23,24
 75 640 75 640 128 640 c 2,25,-1
 640 640 l 1,26,-1
 640 512 l 1,27,-1
 128 512 l 1,28,-1
 128 384 l 1,29,-1
 256 384 l 1,30,-1
 256 256 l 1,31,-1
 128 256 l 2,16,17
EndSplineSet
Validated: 1
EndChar

StartChar: dieresis
Encoding: 168 168 105
Width: 852
Flags: W
LayerCount: 2
Fore
SplineSet
64 512 m 1,0,1
 37 512 37 512 18 530 c 0,2,3
 0 549 0 549 0 576 c 0,4,5
 0 602 0 602 18 621 c 0,6,7
 37 640 37 640 64 640 c 0,8,9
 90 640 90 640 109 621 c 256,10,11
 128 602 128 602 128 576 c 0,12,13
 128 549 128 549 109 530 c 0,14,15
 90 512 90 512 64 512 c 1,16,-1
 64 512 l 1,0,1
576 512 m 1,17,18
 549 512 549 512 530 530 c 0,19,20
 512 549 512 549 512 576 c 0,21,22
 512 602 512 602 530 621 c 0,23,24
 549 640 549 640 576 640 c 0,25,26
 602 640 602 640 621 621 c 256,27,28
 640 602 640 602 640 576 c 0,29,30
 640 549 640 549 621 530 c 0,31,32
 602 512 602 512 576 512 c 1,33,-1
 576 512 l 1,17,18
EndSplineSet
Validated: 5
EndChar

StartChar: copyright
Encoding: 169 169 106
Width: 852
Flags: W
LayerCount: 2
Fore
SplineSet
320 256 m 2,0,1
 293 256 293 256 274 274 c 0,2,3
 256 293 256 293 256 320 c 0,4,5
 256 346 256 346 274 365 c 0,6,7
 293 384 293 384 320 384 c 2,8,-1
 384 384 l 1,9,-1
 384 256 l 1,10,-1
 320 256 l 2,0,1
512 128 m 1,11,-1
 512 512 l 1,12,-1
 128 512 l 1,13,-1
 128 128 l 1,14,-1
 512 128 l 1,11,-1
128 0 m 2,15,16
 74 0 74 0 37 37 c 0,17,18
 0 75 0 75 0 128 c 2,19,-1
 0 512 l 2,20,21
 0 565 0 565 37 602 c 0,22,23
 75 640 75 640 128 640 c 2,24,-1
 512 640 l 2,25,26
 565 640 565 640 602 602 c 0,27,28
 640 564 640 564 640 512 c 2,29,-1
 640 128 l 2,30,31
 640 74 640 74 602 37 c 256,32,33
 564 0 564 0 512 0 c 2,34,-1
 128 0 l 2,15,16
EndSplineSet
Validated: 1
EndChar

StartChar: ordfeminine
Encoding: 170 170 107
Width: 596
Flags: W
LayerCount: 2
Fore
SplineSet
256 384 m 1,0,-1
 256 512 l 1,1,-1
 128 512 l 1,2,-1
 128 384 l 1,3,-1
 256 384 l 1,0,-1
128 256 m 2,4,5
 74 256 74 256 37 293 c 0,6,7
 0 331 0 331 0 384 c 2,8,-1
 0 512 l 2,9,10
 0 565 0 565 37 602 c 0,11,12
 75 640 75 640 128 640 c 2,13,-1
 384 640 l 1,14,-1
 384 256 l 1,15,-1
 128 256 l 2,4,5
EndSplineSet
Validated: 1
EndChar

StartChar: guillemotleft
Encoding: 171 171 108
Width: 852
Flags: W
LayerCount: 2
Fore
SplineSet
128 128 m 2,0,1
 74 128 74 128 37 165 c 0,2,3
 0 203 0 203 0 256 c 2,4,-1
 0 384 l 2,5,6
 0 437 0 437 37 474 c 0,7,8
 75 512 75 512 128 512 c 2,9,-1
 256 512 l 1,10,-1
 256 384 l 1,11,-1
 128 384 l 1,12,-1
 128 256 l 1,13,-1
 256 256 l 1,14,-1
 256 128 l 1,15,-1
 128 128 l 2,0,1
512 128 m 2,16,17
 458 128 458 128 421 165 c 0,18,19
 384 203 384 203 384 256 c 2,20,-1
 384 384 l 2,21,22
 384 437 384 437 421 474 c 0,23,24
 459 512 459 512 512 512 c 2,25,-1
 640 512 l 1,26,-1
 640 384 l 1,27,-1
 512 384 l 1,28,-1
 512 256 l 1,29,-1
 640 256 l 1,30,-1
 640 128 l 1,31,-1
 512 128 l 2,16,17
EndSplineSet
Validated: 1
EndChar

StartChar: logicalnot
Encoding: 172 172 109
Width: 852
Flags: W
LayerCount: 2
Fore
SplineSet
512 128 m 1,0,-1
 512 256 l 1,1,-1
 0 256 l 1,2,-1
 0 384 l 1,3,-1
 640 384 l 1,4,-1
 640 128 l 1,5,-1
 512 128 l 1,0,-1
EndSplineSet
Validated: 1
EndChar

StartChar: registered
Encoding: 174 174 110
Width: 852
Flags: W
LayerCount: 2
Fore
SplineSet
256 256 m 1,0,-1
 256 384 l 1,1,-1
 320 384 l 2,2,3
 346 384 346 384 365 365 c 256,4,5
 384 346 384 346 384 320 c 2,6,-1
 384 256 l 1,7,-1
 256 256 l 1,0,-1
512 128 m 1,8,-1
 512 512 l 1,9,-1
 128 512 l 1,10,-1
 128 128 l 1,11,-1
 512 128 l 1,8,-1
128 0 m 2,12,13
 74 0 74 0 37 37 c 0,14,15
 0 75 0 75 0 128 c 2,16,-1
 0 512 l 2,17,18
 0 565 0 565 37 602 c 0,19,20
 75 640 75 640 128 640 c 2,21,-1
 512 640 l 2,22,23
 565 640 565 640 602 602 c 0,24,25
 640 564 640 564 640 512 c 2,26,-1
 640 128 l 2,27,28
 640 74 640 74 602 37 c 256,29,30
 564 0 564 0 512 0 c 2,31,-1
 128 0 l 2,12,13
EndSplineSet
Validated: 1
EndChar

StartChar: macron
Encoding: 175 175 111
Width: 852
Flags: W
LayerCount: 2
Fore
SplineSet
0 512 m 5,0,-1
 0 640 l 5,1,-1
 640 640 l 5,2,-1
 640 512 l 5,3,-1
 0 512 l 5,0,-1
EndSplineSet
Validated: 1
EndChar

StartChar: degree
Encoding: 176 176 112
Width: 596
Flags: W
LayerCount: 2
Fore
SplineSet
256 384 m 5,0,-1
 256 512 l 5,1,-1
 128 512 l 5,2,-1
 128 384 l 5,3,-1
 256 384 l 5,0,-1
128 256 m 6,4,5
 74 256 74 256 37 293 c 4,6,7
 0 331 0 331 0 384 c 6,8,-1
 0 512 l 6,9,10
 0 565 0 565 37 602 c 4,11,12
 75 640 75 640 128 640 c 6,13,-1
 256 640 l 6,14,15
 309 640 309 640 346 602 c 4,16,17
 384 564 384 564 384 512 c 6,18,-1
 384 384 l 6,19,20
 384 330 384 330 346 293 c 260,21,22
 308 256 308 256 256 256 c 6,23,-1
 128 256 l 6,4,5
EndSplineSet
Validated: 1
EndChar

StartChar: plusminus
Encoding: 177 177 113
Width: 596
Flags: W
LayerCount: 2
Fore
SplineSet
0 0 m 1,0,-1
 0 128 l 1,1,-1
 384 128 l 1,2,-1
 384 0 l 1,3,-1
 0 0 l 1,0,-1
128 256 m 1,4,-1
 128 384 l 1,5,-1
 0 384 l 1,6,-1
 0 512 l 1,7,-1
 128 512 l 1,8,-1
 128 640 l 1,9,-1
 256 640 l 1,10,-1
 256 512 l 1,11,-1
 384 512 l 1,12,-1
 384 384 l 1,13,-1
 256 384 l 1,14,-1
 256 256 l 1,15,-1
 128 256 l 1,4,-1
EndSplineSet
Validated: 1
EndChar

StartChar: uni00B2
Encoding: 178 178 114
Width: 468
Flags: W
LayerCount: 2
Fore
SplineSet
0 256 m 1,0,-1
 0 384 l 2,1,2
 0 437 0 437 37 474 c 0,3,4
 75 512 75 512 128 512 c 2,5,-1
 0 512 l 1,6,-1
 0 640 l 1,7,-1
 128 640 l 2,8,9
 181 640 181 640 218 602 c 0,10,11
 256 564 256 564 256 512 c 0,12,13
 256 458 256 458 218 421 c 256,14,15
 180 384 180 384 128 384 c 2,16,-1
 256 384 l 1,17,-1
 256 256 l 1,18,-1
 0 256 l 1,0,-1
EndSplineSet
Validated: 1
EndChar

StartChar: uni00B3
Encoding: 179 179 115
Width: 468
Flags: W
LayerCount: 2
Fore
SplineSet
0 256 m 1,0,-1
 0 384 l 2,1,2
 0 410 0 410 18 429 c 0,3,4
 37 448 37 448 64 448 c 1,5,6
 37 448 37 448 18 466 c 0,7,8
 0 485 0 485 0 512 c 2,9,-1
 0 640 l 1,10,-1
 128 640 l 2,11,12
 181 640 181 640 218 602 c 0,13,14
 256 564 256 564 256 512 c 2,15,-1
 256 384 l 2,16,17
 256 330 256 330 218 293 c 256,18,19
 180 256 180 256 128 256 c 2,20,-1
 0 256 l 1,0,-1
EndSplineSet
Validated: 1
EndChar

StartChar: acute
Encoding: 180 180 116
Width: 468
Flags: W
LayerCount: 2
Fore
SplineSet
0 512 m 1,0,1
 0 565 0 565 37 602 c 0,2,3
 75 640 75 640 128 640 c 2,4,-1
 256 640 l 1,5,-1
 256 512 l 1,6,-1
 0 512 l 1,0,1
EndSplineSet
Validated: 1
EndChar

StartChar: mu
Encoding: 181 181 117
Width: 724
Flags: W
LayerCount: 2
Fore
SplineSet
0 0 m 1,0,-1
 0 640 l 1,1,-1
 128 640 l 1,2,-1
 128 384 l 1,3,-1
 384 384 l 1,4,-1
 384 640 l 1,5,-1
 512 640 l 1,6,-1
 512 384 l 2,7,8
 512 330 512 330 474 293 c 256,9,10
 436 256 436 256 384 256 c 2,11,-1
 128 256 l 1,12,-1
 128 0 l 1,13,-1
 0 0 l 1,0,-1
EndSplineSet
Validated: 1
EndChar

StartChar: paragraph
Encoding: 182 182 118
Width: 724
Flags: W
LayerCount: 2
Fore
SplineSet
128 0 m 1,0,-1
 128 256 l 1,1,2
 74 256 74 256 37 293 c 0,3,4
 0 331 0 331 0 384 c 2,5,-1
 0 512 l 2,6,7
 0 565 0 565 37 602 c 0,8,9
 75 640 75 640 128 640 c 2,10,-1
 512 640 l 1,11,-1
 512 0 l 1,12,-1
 384 0 l 1,13,-1
 384 512 l 1,14,-1
 256 512 l 1,15,-1
 256 0 l 1,16,-1
 128 0 l 1,0,-1
EndSplineSet
Validated: 1
EndChar

StartChar: periodcentered
Encoding: 183 183 119
Width: 340
Flags: W
LayerCount: 2
Fore
SplineSet
0 256 m 1,0,-1
 0 384 l 1,1,-1
 128 384 l 1,2,-1
 128 256 l 1,3,-1
 0 256 l 1,0,-1
EndSplineSet
Validated: 1
EndChar

StartChar: cedilla
Encoding: 184 184 120
Width: 468
Flags: W
LayerCount: 2
Fore
SplineSet
128 -256 m 1,0,-1
 128 -128 l 1,1,-1
 0 -128 l 1,2,-1
 0 128 l 1,3,-1
 128 128 l 1,4,-1
 128 0 l 1,5,6
 181 0 181 0 218 -37 c 0,7,8
 256 -75 256 -75 256 -128 c 256,9,10
 256 -181 256 -181 218 -218 c 0,11,12
 180 -256 180 -256 128 -256 c 1,13,-1
 128 -256 l 1,0,-1
EndSplineSet
Validated: 5
EndChar

StartChar: uni00B9
Encoding: 185 185 121
Width: 340
Flags: W
LayerCount: 2
Fore
SplineSet
0 384 m 1,0,-1
 0 640 l 1,1,-1
 128 640 l 1,2,-1
 128 384 l 1,3,-1
 0 384 l 1,0,-1
EndSplineSet
Validated: 1
EndChar

StartChar: ordmasculine
Encoding: 186 186 122
Width: 340
Flags: W
LayerCount: 2
Fore
SplineSet
64 512 m 1,0,1
 37 512 37 512 18 530 c 0,2,3
 0 549 0 549 0 576 c 0,4,5
 0 602 0 602 18 621 c 0,6,7
 37 640 37 640 64 640 c 0,8,9
 90 640 90 640 109 621 c 256,10,11
 128 602 128 602 128 576 c 0,12,13
 128 549 128 549 109 530 c 0,14,15
 90 512 90 512 64 512 c 1,16,-1
 64 512 l 1,0,1
EndSplineSet
Validated: 5
EndChar

StartChar: guillemotright
Encoding: 187 187 123
Width: 852
Flags: W
LayerCount: 2
Fore
SplineSet
0 128 m 1,0,-1
 0 256 l 1,1,-1
 128 256 l 1,2,-1
 128 384 l 1,3,-1
 0 384 l 1,4,-1
 0 512 l 1,5,-1
 128 512 l 2,6,7
 181 512 181 512 218 474 c 0,8,9
 256 436 256 436 256 384 c 2,10,-1
 256 256 l 2,11,12
 256 202 256 202 218 165 c 256,13,14
 180 128 180 128 128 128 c 2,15,-1
 0 128 l 1,0,-1
384 128 m 1,16,-1
 384 256 l 1,17,-1
 512 256 l 1,18,-1
 512 384 l 1,19,-1
 384 384 l 1,20,-1
 384 512 l 1,21,-1
 512 512 l 2,22,23
 565 512 565 512 602 474 c 0,24,25
 640 436 640 436 640 384 c 2,26,-1
 640 256 l 2,27,28
 640 202 640 202 602 165 c 256,29,30
 564 128 564 128 512 128 c 2,31,-1
 384 128 l 1,16,-1
EndSplineSet
Validated: 1
EndChar

StartChar: onequarter
Encoding: 188 188 124
Width: 724
Flags: W
LayerCount: 2
Fore
SplineSet
64 0 m 1,0,1
 37 0 37 0 18 18 c 0,2,3
 0 37 0 37 0 64 c 0,4,5
 0 90 0 90 18 109 c 0,6,7
 37 128 37 128 64 128 c 0,8,9
 90 128 90 128 109 109 c 256,10,11
 128 90 128 90 128 64 c 0,12,13
 128 37 128 37 109 18 c 0,14,15
 90 0 90 0 64 0 c 1,16,-1
 64 0 l 1,0,1
192 0 m 1,17,18
 165 0 165 0 146 18 c 0,19,20
 128 37 128 37 128 64 c 0,21,22
 128 90 128 90 146 109 c 0,23,24
 165 128 165 128 192 128 c 0,25,26
 218 128 218 128 237 109 c 256,27,28
 256 90 256 90 256 64 c 0,29,30
 256 37 256 37 237 18 c 0,31,32
 218 0 218 0 192 0 c 1,33,-1
 192 0 l 1,17,18
320 0 m 1,34,35
 293 0 293 0 274 18 c 0,36,37
 256 37 256 37 256 64 c 0,38,39
 256 90 256 90 274 109 c 0,40,41
 293 128 293 128 320 128 c 0,42,43
 346 128 346 128 365 109 c 256,44,45
 384 90 384 90 384 64 c 0,46,47
 384 37 384 37 365 18 c 0,48,49
 346 0 346 0 320 0 c 1,50,-1
 320 0 l 1,34,35
448 0 m 1,51,52
 421 0 421 0 402 18 c 0,53,54
 384 37 384 37 384 64 c 0,55,56
 384 90 384 90 402 109 c 0,57,58
 421 128 421 128 448 128 c 0,59,60
 474 128 474 128 493 109 c 256,61,62
 512 90 512 90 512 64 c 0,63,64
 512 37 512 37 493 18 c 0,65,66
 474 0 474 0 448 0 c 1,67,-1
 448 0 l 1,51,52
0 256 m 1,68,-1
 0 384 l 1,69,-1
 512 384 l 1,70,-1
 512 256 l 1,71,-1
 0 256 l 1,68,-1
64 512 m 1,72,73
 37 512 37 512 18 530 c 0,74,75
 0 549 0 549 0 576 c 0,76,77
 0 602 0 602 18 621 c 0,78,79
 37 640 37 640 64 640 c 0,80,81
 90 640 90 640 109 621 c 256,82,83
 128 602 128 602 128 576 c 0,84,85
 128 549 128 549 109 530 c 0,86,87
 90 512 90 512 64 512 c 1,88,-1
 64 512 l 1,72,73
EndSplineSet
Validated: 5
EndChar

StartChar: onehalf
Encoding: 189 189 125
Width: 724
Flags: W
LayerCount: 2
Fore
SplineSet
320 0 m 1,0,1
 293 0 293 0 274 18 c 0,2,3
 256 37 256 37 256 64 c 0,4,5
 256 90 256 90 274 109 c 0,6,7
 293 128 293 128 320 128 c 0,8,9
 346 128 346 128 365 109 c 256,10,11
 384 90 384 90 384 64 c 0,12,13
 384 37 384 37 365 18 c 0,14,15
 346 0 346 0 320 0 c 1,16,-1
 320 0 l 1,0,1
448 0 m 1,17,18
 421 0 421 0 402 18 c 0,19,20
 384 37 384 37 384 64 c 0,21,22
 384 90 384 90 402 109 c 0,23,24
 421 128 421 128 448 128 c 0,25,26
 474 128 474 128 493 109 c 256,27,28
 512 90 512 90 512 64 c 0,29,30
 512 37 512 37 493 18 c 0,31,32
 474 0 474 0 448 0 c 1,33,-1
 448 0 l 1,17,18
0 256 m 1,34,-1
 0 384 l 1,35,-1
 512 384 l 1,36,-1
 512 256 l 1,37,-1
 0 256 l 1,34,-1
64 512 m 1,38,39
 37 512 37 512 18 530 c 0,40,41
 0 549 0 549 0 576 c 0,42,43
 0 602 0 602 18 621 c 0,44,45
 37 640 37 640 64 640 c 0,46,47
 90 640 90 640 109 621 c 256,48,49
 128 602 128 602 128 576 c 0,50,51
 128 549 128 549 109 530 c 0,52,53
 90 512 90 512 64 512 c 1,54,-1
 64 512 l 1,38,39
EndSplineSet
Validated: 5
EndChar

StartChar: threequarters
Encoding: 190 190 126
Width: 724
Flags: W
LayerCount: 2
Fore
SplineSet
64 0 m 1,0,1
 37 0 37 0 18 18 c 0,2,3
 0 37 0 37 0 64 c 0,4,5
 0 90 0 90 18 109 c 0,6,7
 37 128 37 128 64 128 c 0,8,9
 90 128 90 128 109 109 c 256,10,11
 128 90 128 90 128 64 c 0,12,13
 128 37 128 37 109 18 c 0,14,15
 90 0 90 0 64 0 c 1,16,-1
 64 0 l 1,0,1
192 0 m 1,17,18
 165 0 165 0 146 18 c 0,19,20
 128 37 128 37 128 64 c 0,21,22
 128 90 128 90 146 109 c 0,23,24
 165 128 165 128 192 128 c 0,25,26
 218 128 218 128 237 109 c 256,27,28
 256 90 256 90 256 64 c 0,29,30
 256 37 256 37 237 18 c 0,31,32
 218 0 218 0 192 0 c 1,33,-1
 192 0 l 1,17,18
320 0 m 1,34,35
 293 0 293 0 274 18 c 0,36,37
 256 37 256 37 256 64 c 0,38,39
 256 90 256 90 274 109 c 0,40,41
 293 128 293 128 320 128 c 0,42,43
 346 128 346 128 365 109 c 256,44,45
 384 90 384 90 384 64 c 0,46,47
 384 37 384 37 365 18 c 0,48,49
 346 0 346 0 320 0 c 1,50,-1
 320 0 l 1,34,35
448 0 m 1,51,52
 421 0 421 0 402 18 c 0,53,54
 384 37 384 37 384 64 c 0,55,56
 384 90 384 90 402 109 c 0,57,58
 421 128 421 128 448 128 c 0,59,60
 474 128 474 128 493 109 c 256,61,62
 512 90 512 90 512 64 c 0,63,64
 512 37 512 37 493 18 c 0,65,66
 474 0 474 0 448 0 c 1,67,-1
 448 0 l 1,51,52
0 256 m 1,68,-1
 0 384 l 1,69,-1
 512 384 l 1,70,-1
 512 256 l 1,71,-1
 0 256 l 1,68,-1
64 512 m 1,72,73
 37 512 37 512 18 530 c 0,74,75
 0 549 0 549 0 576 c 0,76,77
 0 602 0 602 18 621 c 0,78,79
 37 640 37 640 64 640 c 0,80,81
 90 640 90 640 109 621 c 256,82,83
 128 602 128 602 128 576 c 0,84,85
 128 549 128 549 109 530 c 0,86,87
 90 512 90 512 64 512 c 1,88,-1
 64 512 l 1,72,73
192 512 m 1,89,90
 165 512 165 512 146 530 c 0,91,92
 128 549 128 549 128 576 c 0,93,94
 128 602 128 602 146 621 c 0,95,96
 165 640 165 640 192 640 c 0,97,98
 218 640 218 640 237 621 c 256,99,100
 256 602 256 602 256 576 c 0,101,102
 256 549 256 549 237 530 c 0,103,104
 218 512 218 512 192 512 c 1,105,-1
 192 512 l 1,89,90
320 512 m 1,106,107
 293 512 293 512 274 530 c 0,108,109
 256 549 256 549 256 576 c 0,110,111
 256 602 256 602 274 621 c 0,112,113
 293 640 293 640 320 640 c 0,114,115
 346 640 346 640 365 621 c 256,116,117
 384 602 384 602 384 576 c 0,118,119
 384 549 384 549 365 530 c 0,120,121
 346 512 346 512 320 512 c 1,122,-1
 320 512 l 1,106,107
EndSplineSet
Validated: 5
EndChar

StartChar: questiondown
Encoding: 191 191 127
Width: 852
Flags: W
LayerCount: 2
Fore
SplineSet
128 0 m 2,0,1
 74 0 74 0 37 37 c 0,2,3
 0 75 0 75 0 128 c 2,4,-1
 0 256 l 2,5,6
 0 309 0 309 37 346 c 0,7,8
 75 384 75 384 128 384 c 2,9,-1
 384 384 l 1,10,-1
 384 256 l 1,11,-1
 128 256 l 1,12,-1
 128 128 l 1,13,-1
 512 128 l 1,14,-1
 512 256 l 1,15,-1
 640 256 l 1,16,-1
 640 128 l 2,17,18
 640 74 640 74 602 37 c 256,19,20
 564 0 564 0 512 0 c 2,21,-1
 128 0 l 2,0,1
256 512 m 1,22,-1
 256 640 l 1,23,-1
 384 640 l 1,24,-1
 384 512 l 1,25,-1
 256 512 l 1,22,-1
EndSplineSet
Validated: 1
EndChar

StartChar: Agrave
Encoding: 192 192 128
Width: 852
Flags: W
LayerCount: 2
Fore
SplineSet
512 384 m 1,0,-1
 512 512 l 1,1,-1
 128 512 l 1,2,-1
 128 384 l 1,3,-1
 512 384 l 1,0,-1
0 0 m 1,4,-1
 0 512 l 2,5,6
 0 565 0 565 37 602 c 0,7,8
 75 640 75 640 128 640 c 2,9,-1
 512 640 l 2,10,11
 565 640 565 640 602 602 c 0,12,13
 640 564 640 564 640 512 c 2,14,-1
 640 0 l 1,15,-1
 512 0 l 1,16,-1
 512 256 l 1,17,-1
 128 256 l 1,18,-1
 128 0 l 1,19,-1
 0 0 l 1,4,-1
0 768 m 1,20,-1
 0 896 l 1,21,-1
 128 896 l 2,22,23
 181 896 181 896 218 858 c 0,24,25
 256 820 256 820 256 768 c 1,26,-1
 0 768 l 1,20,-1
EndSplineSet
Validated: 1
EndChar

StartChar: Aacute
Encoding: 193 193 129
Width: 852
Flags: W
LayerCount: 2
Fore
SplineSet
512 384 m 1,0,-1
 512 512 l 1,1,-1
 128 512 l 1,2,-1
 128 384 l 1,3,-1
 512 384 l 1,0,-1
0 0 m 1,4,-1
 0 512 l 2,5,6
 0 565 0 565 37 602 c 0,7,8
 75 640 75 640 128 640 c 2,9,-1
 512 640 l 2,10,11
 565 640 565 640 602 602 c 0,12,13
 640 564 640 564 640 512 c 2,14,-1
 640 0 l 1,15,-1
 512 0 l 1,16,-1
 512 256 l 1,17,-1
 128 256 l 1,18,-1
 128 0 l 1,19,-1
 0 0 l 1,4,-1
384 768 m 1,20,21
 384 821 384 821 421 858 c 0,22,23
 459 896 459 896 512 896 c 2,24,-1
 640 896 l 1,25,-1
 640 768 l 1,26,-1
 384 768 l 1,20,21
EndSplineSet
Validated: 1
EndChar

StartChar: Acircumflex
Encoding: 194 194 130
Width: 852
Flags: W
LayerCount: 2
Fore
SplineSet
512 384 m 1,0,-1
 512 512 l 1,1,-1
 128 512 l 1,2,-1
 128 384 l 1,3,-1
 512 384 l 1,0,-1
0 0 m 1,4,-1
 0 512 l 2,5,6
 0 565 0 565 37 602 c 0,7,8
 75 640 75 640 128 640 c 2,9,-1
 512 640 l 2,10,11
 565 640 565 640 602 602 c 0,12,13
 640 564 640 564 640 512 c 2,14,-1
 640 0 l 1,15,-1
 512 0 l 1,16,-1
 512 256 l 1,17,-1
 128 256 l 1,18,-1
 128 0 l 1,19,-1
 0 0 l 1,4,-1
0 768 m 1,20,21
 0 821 0 821 37 858 c 0,22,23
 75 896 75 896 128 896 c 2,24,-1
 512 896 l 2,25,26
 565 896 565 896 602 858 c 0,27,28
 640 820 640 820 640 768 c 1,29,-1
 0 768 l 1,20,21
EndSplineSet
Validated: 1
EndChar

StartChar: Atilde
Encoding: 195 195 131
Width: 852
Flags: W
LayerCount: 2
Fore
SplineSet
512 384 m 1,0,-1
 512 512 l 1,1,-1
 128 512 l 1,2,-1
 128 384 l 1,3,-1
 512 384 l 1,0,-1
0 0 m 1,4,-1
 0 512 l 2,5,6
 0 565 0 565 37 602 c 0,7,8
 75 640 75 640 128 640 c 2,9,-1
 512 640 l 2,10,11
 565 640 565 640 602 602 c 0,12,13
 640 564 640 564 640 512 c 2,14,-1
 640 0 l 1,15,-1
 512 0 l 1,16,-1
 512 256 l 1,17,-1
 128 256 l 1,18,-1
 128 0 l 1,19,-1
 0 0 l 1,4,-1
0 768 m 1,20,21
 0 821 0 821 37 858 c 0,22,23
 75 896 75 896 128 896 c 2,24,-1
 256 896 l 2,25,26
 282 896 282 896 301 877 c 256,27,28
 320 858 320 858 320 832 c 0,29,30
 320 805 320 805 301 786 c 0,31,32
 282 768 282 768 256 768 c 2,33,-1
 0 768 l 1,20,21
384 768 m 2,34,35
 357 768 357 768 338 786 c 0,36,37
 320 805 320 805 320 832 c 0,38,39
 320 858 320 858 338 877 c 0,40,41
 357 896 357 896 384 896 c 2,42,-1
 640 896 l 1,43,44
 640 842 640 842 602 805 c 256,45,46
 564 768 564 768 512 768 c 2,47,-1
 384 768 l 2,34,35
EndSplineSet
Validated: 5
EndChar

StartChar: Adieresis
Encoding: 196 196 132
Width: 852
Flags: W
LayerCount: 2
Fore
SplineSet
512 384 m 1,0,-1
 512 512 l 1,1,-1
 128 512 l 1,2,-1
 128 384 l 1,3,-1
 512 384 l 1,0,-1
0 0 m 1,4,-1
 0 512 l 2,5,6
 0 565 0 565 37 602 c 0,7,8
 75 640 75 640 128 640 c 2,9,-1
 512 640 l 2,10,11
 565 640 565 640 602 602 c 0,12,13
 640 564 640 564 640 512 c 2,14,-1
 640 0 l 1,15,-1
 512 0 l 1,16,-1
 512 256 l 1,17,-1
 128 256 l 1,18,-1
 128 0 l 1,19,-1
 0 0 l 1,4,-1
64 768 m 1,20,21
 37 768 37 768 18 786 c 0,22,23
 0 805 0 805 0 832 c 0,24,25
 0 858 0 858 18 877 c 0,26,27
 37 896 37 896 64 896 c 0,28,29
 90 896 90 896 109 877 c 256,30,31
 128 858 128 858 128 832 c 0,32,33
 128 805 128 805 109 786 c 0,34,35
 90 768 90 768 64 768 c 1,36,-1
 64 768 l 1,20,21
576 768 m 1,37,38
 549 768 549 768 530 786 c 0,39,40
 512 805 512 805 512 832 c 0,41,42
 512 858 512 858 530 877 c 0,43,44
 549 896 549 896 576 896 c 0,45,46
 602 896 602 896 621 877 c 256,47,48
 640 858 640 858 640 832 c 0,49,50
 640 805 640 805 621 786 c 0,51,52
 602 768 602 768 576 768 c 1,53,-1
 576 768 l 1,37,38
EndSplineSet
Validated: 5
EndChar

StartChar: Aring
Encoding: 197 197 133
Width: 852
Flags: W
LayerCount: 2
Fore
SplineSet
512 384 m 1,0,-1
 512 512 l 1,1,-1
 128 512 l 1,2,-1
 128 384 l 1,3,-1
 512 384 l 1,0,-1
0 0 m 1,4,-1
 0 512 l 2,5,6
 0 565 0 565 37 602 c 0,7,8
 75 640 75 640 128 640 c 2,9,-1
 512 640 l 2,10,11
 565 640 565 640 602 602 c 0,12,13
 640 564 640 564 640 512 c 2,14,-1
 640 0 l 1,15,-1
 512 0 l 1,16,-1
 512 256 l 1,17,-1
 128 256 l 1,18,-1
 128 0 l 1,19,-1
 0 0 l 1,4,-1
320 768 m 1,20,21
 293 768 293 768 274 786 c 0,22,23
 256 805 256 805 256 832 c 0,24,25
 256 858 256 858 274 877 c 0,26,27
 293 896 293 896 320 896 c 0,28,29
 346 896 346 896 365 877 c 256,30,31
 384 858 384 858 384 832 c 0,32,33
 384 805 384 805 365 786 c 0,34,35
 346 768 346 768 320 768 c 1,36,-1
 320 768 l 1,20,21
EndSplineSet
Validated: 5
EndChar

StartChar: AE
Encoding: 198 198 134
Width: 980
Flags: W
LayerCount: 2
Fore
SplineSet
384 384 m 1,0,-1
 384 512 l 1,1,-1
 128 512 l 1,2,-1
 128 384 l 1,3,-1
 384 384 l 1,0,-1
0 0 m 1,4,-1
 0 512 l 2,5,6
 0 565 0 565 37 602 c 0,7,8
 75 640 75 640 128 640 c 2,9,-1
 768 640 l 1,10,-1
 768 512 l 1,11,-1
 512 512 l 1,12,-1
 512 384 l 1,13,-1
 768 384 l 1,14,-1
 768 256 l 1,15,-1
 512 256 l 1,16,-1
 512 128 l 1,17,-1
 768 128 l 1,18,-1
 768 0 l 1,19,-1
 512 0 l 2,20,21
 458 0 458 0 421 37 c 0,22,23
 384 75 384 75 384 128 c 2,24,-1
 384 256 l 1,25,-1
 128 256 l 1,26,-1
 128 0 l 1,27,-1
 0 0 l 1,4,-1
EndSplineSet
Validated: 1
EndChar

StartChar: Ccedilla
Encoding: 199 199 135
Width: 852
Flags: W
LayerCount: 2
Fore
SplineSet
256 -128 m 1,0,-1
 256 0 l 1,1,-1
 128 0 l 2,2,3
 74 0 74 0 37 37 c 0,4,5
 0 75 0 75 0 128 c 2,6,-1
 0 512 l 2,7,8
 0 565 0 565 37 602 c 0,9,10
 75 640 75 640 128 640 c 2,11,-1
 512 640 l 2,12,13
 565 640 565 640 602 602 c 0,14,15
 640 564 640 564 640 512 c 2,16,-1
 640 384 l 1,17,-1
 512 384 l 1,18,-1
 512 512 l 1,19,-1
 128 512 l 1,20,-1
 128 128 l 1,21,-1
 512 128 l 1,22,-1
 512 256 l 1,23,-1
 640 256 l 1,24,-1
 640 128 l 2,25,26
 640 74 640 74 602 37 c 256,27,28
 564 0 564 0 512 0 c 2,29,-1
 384 0 l 1,30,31
 384 -53 384 -53 346 -90 c 0,32,33
 308 -128 308 -128 256 -128 c 1,34,-1
 256 -128 l 1,0,-1
EndSplineSet
Validated: 5
EndChar

StartChar: Egrave
Encoding: 200 200 136
Width: 852
Flags: W
LayerCount: 2
Fore
SplineSet
128 0 m 2,0,1
 74 0 74 0 37 37 c 0,2,3
 0 75 0 75 0 128 c 2,4,-1
 0 512 l 2,5,6
 0 565 0 565 37 602 c 0,7,8
 75 640 75 640 128 640 c 2,9,-1
 640 640 l 1,10,-1
 640 512 l 1,11,-1
 128 512 l 1,12,-1
 128 384 l 1,13,-1
 640 384 l 1,14,-1
 640 256 l 1,15,-1
 128 256 l 1,16,-1
 128 128 l 1,17,-1
 640 128 l 1,18,-1
 640 0 l 1,19,-1
 128 0 l 2,0,1
0 768 m 1,20,-1
 0 896 l 1,21,-1
 128 896 l 2,22,23
 181 896 181 896 218 858 c 0,24,25
 256 820 256 820 256 768 c 1,26,-1
 0 768 l 1,20,-1
EndSplineSet
Validated: 1
EndChar

StartChar: Eacute
Encoding: 201 201 137
Width: 852
Flags: W
LayerCount: 2
Fore
SplineSet
128 0 m 2,0,1
 74 0 74 0 37 37 c 0,2,3
 0 75 0 75 0 128 c 2,4,-1
 0 512 l 2,5,6
 0 565 0 565 37 602 c 0,7,8
 75 640 75 640 128 640 c 2,9,-1
 640 640 l 1,10,-1
 640 512 l 1,11,-1
 128 512 l 1,12,-1
 128 384 l 1,13,-1
 640 384 l 1,14,-1
 640 256 l 1,15,-1
 128 256 l 1,16,-1
 128 128 l 1,17,-1
 640 128 l 1,18,-1
 640 0 l 1,19,-1
 128 0 l 2,0,1
384 768 m 1,20,21
 384 821 384 821 421 858 c 0,22,23
 459 896 459 896 512 896 c 2,24,-1
 640 896 l 1,25,-1
 640 768 l 1,26,-1
 384 768 l 1,20,21
EndSplineSet
Validated: 1
EndChar

StartChar: Ecircumflex
Encoding: 202 202 138
Width: 852
Flags: W
LayerCount: 2
Fore
SplineSet
128 0 m 2,0,1
 74 0 74 0 37 37 c 0,2,3
 0 75 0 75 0 128 c 2,4,-1
 0 512 l 2,5,6
 0 565 0 565 37 602 c 0,7,8
 75 640 75 640 128 640 c 2,9,-1
 640 640 l 1,10,-1
 640 512 l 1,11,-1
 128 512 l 1,12,-1
 128 384 l 1,13,-1
 640 384 l 1,14,-1
 640 256 l 1,15,-1
 128 256 l 1,16,-1
 128 128 l 1,17,-1
 640 128 l 1,18,-1
 640 0 l 1,19,-1
 128 0 l 2,0,1
0 768 m 1,20,21
 0 821 0 821 37 858 c 0,22,23
 75 896 75 896 128 896 c 2,24,-1
 512 896 l 2,25,26
 565 896 565 896 602 858 c 0,27,28
 640 820 640 820 640 768 c 1,29,-1
 0 768 l 1,20,21
EndSplineSet
Validated: 1
EndChar

StartChar: Edieresis
Encoding: 203 203 139
Width: 852
Flags: W
LayerCount: 2
Fore
SplineSet
128 0 m 2,0,1
 74 0 74 0 37 37 c 0,2,3
 0 75 0 75 0 128 c 2,4,-1
 0 512 l 2,5,6
 0 565 0 565 37 602 c 0,7,8
 75 640 75 640 128 640 c 2,9,-1
 640 640 l 1,10,-1
 640 512 l 1,11,-1
 128 512 l 1,12,-1
 128 384 l 1,13,-1
 640 384 l 1,14,-1
 640 256 l 1,15,-1
 128 256 l 1,16,-1
 128 128 l 1,17,-1
 640 128 l 1,18,-1
 640 0 l 1,19,-1
 128 0 l 2,0,1
64 768 m 1,20,21
 37 768 37 768 18 786 c 0,22,23
 0 805 0 805 0 832 c 0,24,25
 0 858 0 858 18 877 c 0,26,27
 37 896 37 896 64 896 c 0,28,29
 90 896 90 896 109 877 c 256,30,31
 128 858 128 858 128 832 c 0,32,33
 128 805 128 805 109 786 c 0,34,35
 90 768 90 768 64 768 c 1,36,-1
 64 768 l 1,20,21
576 768 m 1,37,38
 549 768 549 768 530 786 c 0,39,40
 512 805 512 805 512 832 c 0,41,42
 512 858 512 858 530 877 c 0,43,44
 549 896 549 896 576 896 c 0,45,46
 602 896 602 896 621 877 c 256,47,48
 640 858 640 858 640 832 c 0,49,50
 640 805 640 805 621 786 c 0,51,52
 602 768 602 768 576 768 c 1,53,-1
 576 768 l 1,37,38
EndSplineSet
Validated: 5
EndChar

StartChar: Igrave
Encoding: 204 204 140
Width: 468
Flags: W
LayerCount: 2
Fore
SplineSet
0 0 m 1,0,-1
 0 640 l 1,1,-1
 128 640 l 1,2,-1
 128 0 l 1,3,-1
 0 0 l 1,0,-1
0 768 m 1,4,-1
 0 896 l 1,5,-1
 128 896 l 2,6,7
 181 896 181 896 218 858 c 0,8,9
 256 820 256 820 256 768 c 1,10,-1
 0 768 l 1,4,-1
EndSplineSet
Validated: 1
EndChar

StartChar: Iacute
Encoding: 205 205 141
Width: 468
Flags: W
LayerCount: 2
Fore
SplineSet
0 0 m 1,0,-1
 0 640 l 1,1,-1
 128 640 l 1,2,-1
 128 0 l 1,3,-1
 0 0 l 1,0,-1
0 768 m 1,4,5
 0 821 0 821 37 858 c 0,6,7
 75 896 75 896 128 896 c 2,8,-1
 256 896 l 1,9,-1
 256 768 l 1,10,-1
 0 768 l 1,4,5
EndSplineSet
Validated: 1
EndChar

StartChar: Icircumflex
Encoding: 206 206 142
Width: 340
Flags: W
LayerCount: 2
Fore
SplineSet
0 0 m 1,0,-1
 0 640 l 1,1,-1
 128 640 l 1,2,-1
 128 0 l 1,3,-1
 0 0 l 1,0,-1
0 768 m 1,4,5
 0 794 0 794 18 813 c 0,6,7
 37 832 37 832 64 832 c 0,8,9
 90 832 90 832 109 813 c 256,10,11
 128 794 128 794 128 768 c 1,12,-1
 0 768 l 1,4,5
EndSplineSet
Validated: 1
EndChar

StartChar: Idieresis
Encoding: 207 207 143
Width: 468
Flags: W
LayerCount: 2
Fore
SplineSet
0 0 m 1,0,-1
 0 640 l 1,1,-1
 128 640 l 1,2,-1
 128 0 l 1,3,-1
 0 0 l 1,0,-1
-64 768 m 1,4,5
 -90 768 -90 768 -109 786 c 0,6,7
 -128 805 -128 805 -128 832 c 0,8,9
 -128 858 -128 858 -109 877 c 256,10,11
 -90 896 -90 896 -64 896 c 0,12,13
 -37 896 -37 896 -18 877 c 0,14,15
 0 858 0 858 0 832 c 0,16,17
 0 805 0 805 -18 786 c 0,18,19
 -37 768 -37 768 -64 768 c 1,20,-1
 -64 768 l 1,4,5
192 768 m 1,21,22
 165 768 165 768 146 786 c 0,23,24
 128 805 128 805 128 832 c 0,25,26
 128 858 128 858 146 877 c 0,27,28
 165 896 165 896 192 896 c 0,29,30
 218 896 218 896 237 877 c 256,31,32
 256 858 256 858 256 832 c 0,33,34
 256 805 256 805 237 786 c 0,35,36
 218 768 218 768 192 768 c 1,37,-1
 192 768 l 1,21,22
EndSplineSet
Validated: 5
EndChar

StartChar: Eth
Encoding: 208 208 144
Width: 852
Flags: W
LayerCount: 2
Fore
SplineSet
512 128 m 1,0,-1
 512 512 l 1,1,-1
 128 512 l 1,2,-1
 128 384 l 1,3,-1
 384 384 l 1,4,-1
 384 256 l 1,5,-1
 128 256 l 1,6,-1
 128 128 l 1,7,-1
 512 128 l 1,0,-1
0 0 m 1,8,-1
 0 256 l 1,9,-1
 -128 256 l 1,10,-1
 -128 384 l 1,11,-1
 0 384 l 1,12,-1
 0 640 l 1,13,-1
 512 640 l 2,14,15
 565 640 565 640 602 602 c 0,16,17
 640 564 640 564 640 512 c 2,18,-1
 640 128 l 2,19,20
 640 74 640 74 602 37 c 256,21,22
 564 0 564 0 512 0 c 2,23,-1
 0 0 l 1,8,-1
EndSplineSet
Validated: 1
EndChar

StartChar: Ntilde
Encoding: 209 209 145
Width: 852
Flags: W
LayerCount: 2
Fore
SplineSet
0 0 m 1,0,-1
 0 640 l 1,1,-1
 512 640 l 2,2,3
 565 640 565 640 602 602 c 0,4,5
 640 564 640 564 640 512 c 2,6,-1
 640 0 l 1,7,-1
 512 0 l 1,8,-1
 512 512 l 1,9,-1
 128 512 l 1,10,-1
 128 0 l 1,11,-1
 0 0 l 1,0,-1
0 768 m 1,12,13
 0 821 0 821 37 858 c 0,14,15
 75 896 75 896 128 896 c 2,16,-1
 256 896 l 2,17,18
 282 896 282 896 301 877 c 256,19,20
 320 858 320 858 320 832 c 0,21,22
 320 805 320 805 301 786 c 0,23,24
 282 768 282 768 256 768 c 2,25,-1
 0 768 l 1,12,13
384 768 m 2,26,27
 357 768 357 768 338 786 c 0,28,29
 320 805 320 805 320 832 c 0,30,31
 320 858 320 858 338 877 c 0,32,33
 357 896 357 896 384 896 c 2,34,-1
 640 896 l 1,35,36
 640 842 640 842 602 805 c 256,37,38
 564 768 564 768 512 768 c 2,39,-1
 384 768 l 2,26,27
EndSplineSet
Validated: 5
EndChar

StartChar: Ograve
Encoding: 210 210 146
Width: 852
Flags: W
LayerCount: 2
Fore
SplineSet
512 128 m 1,0,-1
 512 512 l 1,1,-1
 128 512 l 1,2,-1
 128 128 l 1,3,-1
 512 128 l 1,0,-1
128 0 m 2,4,5
 74 0 74 0 37 37 c 0,6,7
 0 75 0 75 0 128 c 2,8,-1
 0 512 l 2,9,10
 0 565 0 565 37 602 c 0,11,12
 75 640 75 640 128 640 c 2,13,-1
 512 640 l 2,14,15
 565 640 565 640 602 602 c 0,16,17
 640 564 640 564 640 512 c 2,18,-1
 640 128 l 2,19,20
 640 74 640 74 602 37 c 256,21,22
 564 0 564 0 512 0 c 2,23,-1
 128 0 l 2,4,5
0 768 m 1,24,-1
 0 896 l 1,25,-1
 128 896 l 2,26,27
 181 896 181 896 218 858 c 0,28,29
 256 820 256 820 256 768 c 1,30,-1
 0 768 l 1,24,-1
EndSplineSet
Validated: 1
EndChar

StartChar: Oacute
Encoding: 211 211 147
Width: 852
Flags: W
LayerCount: 2
Fore
SplineSet
512 128 m 1,0,-1
 512 512 l 1,1,-1
 128 512 l 1,2,-1
 128 128 l 1,3,-1
 512 128 l 1,0,-1
128 0 m 2,4,5
 74 0 74 0 37 37 c 0,6,7
 0 75 0 75 0 128 c 2,8,-1
 0 512 l 2,9,10
 0 565 0 565 37 602 c 0,11,12
 75 640 75 640 128 640 c 2,13,-1
 512 640 l 2,14,15
 565 640 565 640 602 602 c 0,16,17
 640 564 640 564 640 512 c 2,18,-1
 640 128 l 2,19,20
 640 74 640 74 602 37 c 256,21,22
 564 0 564 0 512 0 c 2,23,-1
 128 0 l 2,4,5
384 768 m 1,24,25
 384 821 384 821 421 858 c 0,26,27
 459 896 459 896 512 896 c 2,28,-1
 640 896 l 1,29,-1
 640 768 l 1,30,-1
 384 768 l 1,24,25
EndSplineSet
Validated: 1
EndChar

StartChar: Ocircumflex
Encoding: 212 212 148
Width: 852
Flags: W
LayerCount: 2
Fore
SplineSet
512 128 m 1,0,-1
 512 512 l 1,1,-1
 128 512 l 1,2,-1
 128 128 l 1,3,-1
 512 128 l 1,0,-1
128 0 m 2,4,5
 74 0 74 0 37 37 c 0,6,7
 0 75 0 75 0 128 c 2,8,-1
 0 512 l 2,9,10
 0 565 0 565 37 602 c 0,11,12
 75 640 75 640 128 640 c 2,13,-1
 512 640 l 2,14,15
 565 640 565 640 602 602 c 0,16,17
 640 564 640 564 640 512 c 2,18,-1
 640 128 l 2,19,20
 640 74 640 74 602 37 c 256,21,22
 564 0 564 0 512 0 c 2,23,-1
 128 0 l 2,4,5
0 768 m 1,24,25
 0 821 0 821 37 858 c 0,26,27
 75 896 75 896 128 896 c 2,28,-1
 512 896 l 2,29,30
 565 896 565 896 602 858 c 0,31,32
 640 820 640 820 640 768 c 1,33,-1
 0 768 l 1,24,25
EndSplineSet
Validated: 1
EndChar

StartChar: Otilde
Encoding: 213 213 149
Width: 852
Flags: W
LayerCount: 2
Fore
SplineSet
512 128 m 1,0,-1
 512 512 l 1,1,-1
 128 512 l 1,2,-1
 128 128 l 1,3,-1
 512 128 l 1,0,-1
128 0 m 2,4,5
 74 0 74 0 37 37 c 0,6,7
 0 75 0 75 0 128 c 2,8,-1
 0 512 l 2,9,10
 0 565 0 565 37 602 c 0,11,12
 75 640 75 640 128 640 c 2,13,-1
 512 640 l 2,14,15
 565 640 565 640 602 602 c 0,16,17
 640 564 640 564 640 512 c 2,18,-1
 640 128 l 2,19,20
 640 74 640 74 602 37 c 256,21,22
 564 0 564 0 512 0 c 2,23,-1
 128 0 l 2,4,5
0 768 m 1,24,25
 0 821 0 821 37 858 c 0,26,27
 75 896 75 896 128 896 c 2,28,-1
 256 896 l 2,29,30
 282 896 282 896 301 877 c 256,31,32
 320 858 320 858 320 832 c 0,33,34
 320 805 320 805 301 786 c 0,35,36
 282 768 282 768 256 768 c 2,37,-1
 0 768 l 1,24,25
384 768 m 2,38,39
 357 768 357 768 338 786 c 0,40,41
 320 805 320 805 320 832 c 0,42,43
 320 858 320 858 338 877 c 0,44,45
 357 896 357 896 384 896 c 2,46,-1
 640 896 l 1,47,48
 640 842 640 842 602 805 c 256,49,50
 564 768 564 768 512 768 c 2,51,-1
 384 768 l 2,38,39
EndSplineSet
Validated: 5
EndChar

StartChar: Odieresis
Encoding: 214 214 150
Width: 852
Flags: W
LayerCount: 2
Fore
SplineSet
512 128 m 1,0,-1
 512 512 l 1,1,-1
 128 512 l 1,2,-1
 128 128 l 1,3,-1
 512 128 l 1,0,-1
128 0 m 2,4,5
 74 0 74 0 37 37 c 0,6,7
 0 75 0 75 0 128 c 2,8,-1
 0 512 l 2,9,10
 0 565 0 565 37 602 c 0,11,12
 75 640 75 640 128 640 c 2,13,-1
 512 640 l 2,14,15
 565 640 565 640 602 602 c 0,16,17
 640 564 640 564 640 512 c 2,18,-1
 640 128 l 2,19,20
 640 74 640 74 602 37 c 256,21,22
 564 0 564 0 512 0 c 2,23,-1
 128 0 l 2,4,5
64 768 m 1,24,25
 37 768 37 768 18 786 c 0,26,27
 0 805 0 805 0 832 c 0,28,29
 0 858 0 858 18 877 c 0,30,31
 37 896 37 896 64 896 c 0,32,33
 90 896 90 896 109 877 c 256,34,35
 128 858 128 858 128 832 c 0,36,37
 128 805 128 805 109 786 c 0,38,39
 90 768 90 768 64 768 c 1,40,-1
 64 768 l 1,24,25
576 768 m 1,41,42
 549 768 549 768 530 786 c 0,43,44
 512 805 512 805 512 832 c 0,45,46
 512 858 512 858 530 877 c 0,47,48
 549 896 549 896 576 896 c 0,49,50
 602 896 602 896 621 877 c 256,51,52
 640 858 640 858 640 832 c 0,53,54
 640 805 640 805 621 786 c 0,55,56
 602 768 602 768 576 768 c 1,57,-1
 576 768 l 1,41,42
EndSplineSet
Validated: 5
EndChar

StartChar: multiply
Encoding: 215 215 151
Width: 724
Flags: W
LayerCount: 2
Fore
SplineSet
0 128 m 1,0,-1
 0 256 l 2,1,2
 0 282 0 282 18 301 c 0,3,4
 37 320 37 320 64 320 c 1,5,6
 37 320 37 320 18 338 c 0,7,8
 0 357 0 357 0 384 c 2,9,-1
 0 512 l 1,10,-1
 128 512 l 1,11,-1
 128 384 l 1,12,-1
 384 384 l 1,13,-1
 384 512 l 1,14,-1
 512 512 l 1,15,-1
 512 384 l 2,16,17
 512 357 512 357 493 338 c 0,18,19
 474 320 474 320 448 320 c 1,20,21
 474 320 474 320 493 301 c 256,22,23
 512 282 512 282 512 256 c 2,24,-1
 512 128 l 1,25,-1
 384 128 l 1,26,-1
 384 256 l 1,27,-1
 128 256 l 1,28,-1
 128 128 l 1,29,-1
 0 128 l 1,0,-1
EndSplineSet
Validated: 1
EndChar

StartChar: Oslash
Encoding: 216 216 152
Width: 852
Flags: W
LayerCount: 2
Fore
SplineSet
512 128 m 1,0,-1
 512 384 l 1,1,2
 458 384 458 384 421 421 c 0,3,4
 384 459 384 459 384 512 c 1,5,-1
 128 512 l 1,6,-1
 128 256 l 1,7,8
 181 256 181 256 218 218 c 0,9,10
 256 180 256 180 256 128 c 1,11,-1
 512 128 l 1,0,-1
128 0 m 2,12,13
 74 0 74 0 37 37 c 0,14,15
 0 75 0 75 0 128 c 2,16,-1
 0 512 l 2,17,18
 0 565 0 565 37 602 c 0,19,20
 75 640 75 640 128 640 c 2,21,-1
 512 640 l 2,22,23
 565 640 565 640 602 602 c 0,24,25
 640 564 640 564 640 512 c 2,26,-1
 640 128 l 2,27,28
 640 74 640 74 602 37 c 256,29,30
 564 0 564 0 512 0 c 2,31,-1
 128 0 l 2,12,13
EndSplineSet
Validated: 1
EndChar

StartChar: Ugrave
Encoding: 217 217 153
Width: 852
Flags: W
LayerCount: 2
Fore
SplineSet
128 0 m 2,0,1
 74 0 74 0 37 37 c 0,2,3
 0 75 0 75 0 128 c 2,4,-1
 0 640 l 1,5,-1
 128 640 l 1,6,-1
 128 128 l 1,7,-1
 512 128 l 1,8,-1
 512 640 l 1,9,-1
 640 640 l 1,10,-1
 640 0 l 1,11,-1
 128 0 l 2,0,1
0 768 m 1,12,-1
 0 896 l 1,13,-1
 128 896 l 2,14,15
 181 896 181 896 218 858 c 0,16,17
 256 820 256 820 256 768 c 1,18,-1
 0 768 l 1,12,-1
EndSplineSet
Validated: 1
EndChar

StartChar: Uacute
Encoding: 218 218 154
Width: 852
Flags: W
LayerCount: 2
Fore
SplineSet
128 0 m 2,0,1
 74 0 74 0 37 37 c 0,2,3
 0 75 0 75 0 128 c 2,4,-1
 0 640 l 1,5,-1
 128 640 l 1,6,-1
 128 128 l 1,7,-1
 512 128 l 1,8,-1
 512 640 l 1,9,-1
 640 640 l 1,10,-1
 640 0 l 1,11,-1
 128 0 l 2,0,1
384 768 m 1,12,13
 384 821 384 821 421 858 c 0,14,15
 459 896 459 896 512 896 c 2,16,-1
 640 896 l 1,17,-1
 640 768 l 1,18,-1
 384 768 l 1,12,13
EndSplineSet
Validated: 1
EndChar

StartChar: Ucircumflex
Encoding: 219 219 155
Width: 852
Flags: W
LayerCount: 2
Fore
SplineSet
128 0 m 2,0,1
 74 0 74 0 37 37 c 0,2,3
 0 75 0 75 0 128 c 2,4,-1
 0 640 l 1,5,-1
 128 640 l 1,6,-1
 128 128 l 1,7,-1
 512 128 l 1,8,-1
 512 640 l 1,9,-1
 640 640 l 1,10,-1
 640 0 l 1,11,-1
 128 0 l 2,0,1
0 768 m 1,12,13
 0 821 0 821 37 858 c 0,14,15
 75 896 75 896 128 896 c 2,16,-1
 512 896 l 2,17,18
 565 896 565 896 602 858 c 0,19,20
 640 820 640 820 640 768 c 1,21,-1
 0 768 l 1,12,13
EndSplineSet
Validated: 1
EndChar

StartChar: Udieresis
Encoding: 220 220 156
Width: 852
Flags: W
LayerCount: 2
Fore
SplineSet
128 0 m 2,0,1
 74 0 74 0 37 37 c 0,2,3
 0 75 0 75 0 128 c 2,4,-1
 0 640 l 1,5,-1
 128 640 l 1,6,-1
 128 128 l 1,7,-1
 512 128 l 1,8,-1
 512 640 l 1,9,-1
 640 640 l 1,10,-1
 640 0 l 1,11,-1
 128 0 l 2,0,1
64 768 m 1,12,13
 37 768 37 768 18 786 c 0,14,15
 0 805 0 805 0 832 c 0,16,17
 0 858 0 858 18 877 c 0,18,19
 37 896 37 896 64 896 c 0,20,21
 90 896 90 896 109 877 c 256,22,23
 128 858 128 858 128 832 c 0,24,25
 128 805 128 805 109 786 c 0,26,27
 90 768 90 768 64 768 c 1,28,-1
 64 768 l 1,12,13
576 768 m 1,29,30
 549 768 549 768 530 786 c 0,31,32
 512 805 512 805 512 832 c 0,33,34
 512 858 512 858 530 877 c 0,35,36
 549 896 549 896 576 896 c 0,37,38
 602 896 602 896 621 877 c 256,39,40
 640 858 640 858 640 832 c 0,41,42
 640 805 640 805 621 786 c 0,43,44
 602 768 602 768 576 768 c 1,45,-1
 576 768 l 1,29,30
EndSplineSet
Validated: 5
EndChar

StartChar: Yacute
Encoding: 221 221 157
Width: 852
Flags: W
LayerCount: 2
Fore
SplineSet
256 0 m 1,0,-1
 256 256 l 1,1,-1
 128 256 l 2,2,3
 74 256 74 256 37 293 c 0,4,5
 0 331 0 331 0 384 c 2,6,-1
 0 640 l 1,7,-1
 128 640 l 1,8,-1
 128 384 l 1,9,-1
 512 384 l 1,10,-1
 512 640 l 1,11,-1
 640 640 l 1,12,-1
 640 384 l 2,13,14
 640 330 640 330 602 293 c 256,15,16
 564 256 564 256 512 256 c 2,17,-1
 384 256 l 1,18,-1
 384 0 l 1,19,-1
 256 0 l 1,0,-1
128 640 m 1,20,21
 128 693 128 693 165 730 c 0,22,23
 203 768 203 768 256 768 c 2,24,-1
 384 768 l 1,25,-1
 384 640 l 1,26,-1
 128 640 l 1,20,21
EndSplineSet
Validated: 5
EndChar

StartChar: Thorn
Encoding: 222 222 158
Width: 596
Flags: W
LayerCount: 2
Fore
SplineSet
256 256 m 1,0,-1
 256 384 l 1,1,-1
 128 384 l 1,2,-1
 128 256 l 1,3,-1
 256 256 l 1,0,-1
0 0 m 1,4,-1
 0 640 l 1,5,-1
 128 640 l 1,6,-1
 128 512 l 1,7,-1
 256 512 l 2,8,9
 309 512 309 512 346 474 c 0,10,11
 384 436 384 436 384 384 c 2,12,-1
 384 256 l 2,13,14
 384 202 384 202 346 165 c 256,15,16
 308 128 308 128 256 128 c 2,17,-1
 128 128 l 1,18,-1
 128 0 l 1,19,-1
 0 0 l 1,4,-1
EndSplineSet
Validated: 1
EndChar

StartChar: germandbls
Encoding: 223 223 159
Width: 852
Flags: W
LayerCount: 2
Fore
SplineSet
384 384 m 1,0,-1
 384 512 l 1,1,-1
 128 512 l 1,2,-1
 128 384 l 1,3,-1
 384 384 l 1,0,-1
0 0 m 1,4,-1
 0 512 l 2,5,6
 0 565 0 565 37 602 c 0,7,8
 75 640 75 640 128 640 c 2,9,-1
 384 640 l 2,10,11
 437 640 437 640 474 602 c 0,12,13
 512 564 512 564 512 512 c 2,14,-1
 512 384 l 1,15,16
 565 384 565 384 602 346 c 0,17,18
 640 308 640 308 640 256 c 2,19,-1
 640 128 l 2,20,21
 640 74 640 74 602 37 c 256,22,23
 564 0 564 0 512 0 c 2,24,-1
 256 0 l 1,25,-1
 256 128 l 1,26,-1
 512 128 l 1,27,-1
 512 256 l 1,28,-1
 128 256 l 1,29,-1
 128 0 l 1,30,-1
 0 0 l 1,4,-1
EndSplineSet
Validated: 1
EndChar

StartChar: agrave
Encoding: 224 224 160
Width: 852
Flags: W
LayerCount: 2
Fore
SplineSet
512 384 m 1,0,-1
 512 512 l 1,1,-1
 128 512 l 1,2,-1
 128 384 l 1,3,-1
 512 384 l 1,0,-1
0 0 m 1,4,-1
 0 512 l 2,5,6
 0 565 0 565 37 602 c 0,7,8
 75 640 75 640 128 640 c 2,9,-1
 512 640 l 2,10,11
 565 640 565 640 602 602 c 0,12,13
 640 564 640 564 640 512 c 2,14,-1
 640 0 l 1,15,-1
 512 0 l 1,16,-1
 512 256 l 1,17,-1
 128 256 l 1,18,-1
 128 0 l 1,19,-1
 0 0 l 1,4,-1
0 768 m 1,20,-1
 0 896 l 1,21,-1
 128 896 l 2,22,23
 181 896 181 896 218 858 c 0,24,25
 256 820 256 820 256 768 c 1,26,-1
 0 768 l 1,20,-1
EndSplineSet
Validated: 1
EndChar

StartChar: aacute
Encoding: 225 225 161
Width: 852
Flags: W
LayerCount: 2
Fore
SplineSet
512 384 m 1,0,-1
 512 512 l 1,1,-1
 128 512 l 1,2,-1
 128 384 l 1,3,-1
 512 384 l 1,0,-1
0 0 m 1,4,-1
 0 512 l 2,5,6
 0 565 0 565 37 602 c 0,7,8
 75 640 75 640 128 640 c 2,9,-1
 512 640 l 2,10,11
 565 640 565 640 602 602 c 0,12,13
 640 564 640 564 640 512 c 2,14,-1
 640 0 l 1,15,-1
 512 0 l 1,16,-1
 512 256 l 1,17,-1
 128 256 l 1,18,-1
 128 0 l 1,19,-1
 0 0 l 1,4,-1
384 768 m 1,20,21
 384 821 384 821 421 858 c 0,22,23
 459 896 459 896 512 896 c 2,24,-1
 640 896 l 1,25,-1
 640 768 l 1,26,-1
 384 768 l 1,20,21
EndSplineSet
Validated: 1
EndChar

StartChar: acircumflex
Encoding: 226 226 162
Width: 852
Flags: W
LayerCount: 2
Fore
SplineSet
512 384 m 1,0,-1
 512 512 l 1,1,-1
 128 512 l 1,2,-1
 128 384 l 1,3,-1
 512 384 l 1,0,-1
0 0 m 1,4,-1
 0 512 l 2,5,6
 0 565 0 565 37 602 c 0,7,8
 75 640 75 640 128 640 c 2,9,-1
 512 640 l 2,10,11
 565 640 565 640 602 602 c 0,12,13
 640 564 640 564 640 512 c 2,14,-1
 640 0 l 1,15,-1
 512 0 l 1,16,-1
 512 256 l 1,17,-1
 128 256 l 1,18,-1
 128 0 l 1,19,-1
 0 0 l 1,4,-1
0 768 m 1,20,21
 0 821 0 821 37 858 c 0,22,23
 75 896 75 896 128 896 c 2,24,-1
 512 896 l 2,25,26
 565 896 565 896 602 858 c 0,27,28
 640 820 640 820 640 768 c 1,29,-1
 0 768 l 1,20,21
EndSplineSet
Validated: 1
EndChar

StartChar: atilde
Encoding: 227 227 163
Width: 852
Flags: W
LayerCount: 2
Fore
SplineSet
512 384 m 1,0,-1
 512 512 l 1,1,-1
 128 512 l 1,2,-1
 128 384 l 1,3,-1
 512 384 l 1,0,-1
0 0 m 1,4,-1
 0 512 l 2,5,6
 0 565 0 565 37 602 c 0,7,8
 75 640 75 640 128 640 c 2,9,-1
 512 640 l 2,10,11
 565 640 565 640 602 602 c 0,12,13
 640 564 640 564 640 512 c 2,14,-1
 640 0 l 1,15,-1
 512 0 l 1,16,-1
 512 256 l 1,17,-1
 128 256 l 1,18,-1
 128 0 l 1,19,-1
 0 0 l 1,4,-1
0 768 m 1,20,21
 0 821 0 821 37 858 c 0,22,23
 75 896 75 896 128 896 c 2,24,-1
 256 896 l 2,25,26
 282 896 282 896 301 877 c 256,27,28
 320 858 320 858 320 832 c 0,29,30
 320 805 320 805 301 786 c 0,31,32
 282 768 282 768 256 768 c 2,33,-1
 0 768 l 1,20,21
384 768 m 2,34,35
 357 768 357 768 338 786 c 0,36,37
 320 805 320 805 320 832 c 0,38,39
 320 858 320 858 338 877 c 0,40,41
 357 896 357 896 384 896 c 2,42,-1
 640 896 l 1,43,44
 640 842 640 842 602 805 c 256,45,46
 564 768 564 768 512 768 c 2,47,-1
 384 768 l 2,34,35
EndSplineSet
Validated: 5
EndChar

StartChar: adieresis
Encoding: 228 228 164
Width: 852
Flags: W
LayerCount: 2
Fore
SplineSet
512 384 m 1,0,-1
 512 512 l 1,1,-1
 128 512 l 1,2,-1
 128 384 l 1,3,-1
 512 384 l 1,0,-1
0 0 m 1,4,-1
 0 512 l 2,5,6
 0 565 0 565 37 602 c 0,7,8
 75 640 75 640 128 640 c 2,9,-1
 512 640 l 2,10,11
 565 640 565 640 602 602 c 0,12,13
 640 564 640 564 640 512 c 2,14,-1
 640 0 l 1,15,-1
 512 0 l 1,16,-1
 512 256 l 1,17,-1
 128 256 l 1,18,-1
 128 0 l 1,19,-1
 0 0 l 1,4,-1
64 768 m 1,20,21
 37 768 37 768 18 786 c 0,22,23
 0 805 0 805 0 832 c 0,24,25
 0 858 0 858 18 877 c 0,26,27
 37 896 37 896 64 896 c 0,28,29
 90 896 90 896 109 877 c 256,30,31
 128 858 128 858 128 832 c 0,32,33
 128 805 128 805 109 786 c 0,34,35
 90 768 90 768 64 768 c 1,36,-1
 64 768 l 1,20,21
576 768 m 1,37,38
 549 768 549 768 530 786 c 0,39,40
 512 805 512 805 512 832 c 0,41,42
 512 858 512 858 530 877 c 0,43,44
 549 896 549 896 576 896 c 0,45,46
 602 896 602 896 621 877 c 256,47,48
 640 858 640 858 640 832 c 0,49,50
 640 805 640 805 621 786 c 0,51,52
 602 768 602 768 576 768 c 1,53,-1
 576 768 l 1,37,38
EndSplineSet
Validated: 5
EndChar

StartChar: aring
Encoding: 229 229 165
Width: 852
Flags: W
LayerCount: 2
Fore
SplineSet
512 384 m 1,0,-1
 512 512 l 1,1,-1
 128 512 l 1,2,-1
 128 384 l 1,3,-1
 512 384 l 1,0,-1
0 0 m 1,4,-1
 0 512 l 2,5,6
 0 565 0 565 37 602 c 0,7,8
 75 640 75 640 128 640 c 2,9,-1
 512 640 l 2,10,11
 565 640 565 640 602 602 c 0,12,13
 640 564 640 564 640 512 c 2,14,-1
 640 0 l 1,15,-1
 512 0 l 1,16,-1
 512 256 l 1,17,-1
 128 256 l 1,18,-1
 128 0 l 1,19,-1
 0 0 l 1,4,-1
320 768 m 1,20,21
 293 768 293 768 274 786 c 0,22,23
 256 805 256 805 256 832 c 0,24,25
 256 858 256 858 274 877 c 0,26,27
 293 896 293 896 320 896 c 0,28,29
 346 896 346 896 365 877 c 256,30,31
 384 858 384 858 384 832 c 0,32,33
 384 805 384 805 365 786 c 0,34,35
 346 768 346 768 320 768 c 1,36,-1
 320 768 l 1,20,21
EndSplineSet
Validated: 5
EndChar

StartChar: ae
Encoding: 230 230 166
Width: 980
Flags: W
LayerCount: 2
Fore
SplineSet
384 384 m 1,0,-1
 384 512 l 1,1,-1
 128 512 l 1,2,-1
 128 384 l 1,3,-1
 384 384 l 1,0,-1
0 0 m 1,4,-1
 0 512 l 2,5,6
 0 565 0 565 37 602 c 0,7,8
 75 640 75 640 128 640 c 2,9,-1
 768 640 l 1,10,-1
 768 512 l 1,11,-1
 512 512 l 1,12,-1
 512 384 l 1,13,-1
 768 384 l 1,14,-1
 768 256 l 1,15,-1
 512 256 l 1,16,-1
 512 128 l 1,17,-1
 768 128 l 1,18,-1
 768 0 l 1,19,-1
 512 0 l 2,20,21
 458 0 458 0 421 37 c 0,22,23
 384 75 384 75 384 128 c 2,24,-1
 384 256 l 1,25,-1
 128 256 l 1,26,-1
 128 0 l 1,27,-1
 0 0 l 1,4,-1
EndSplineSet
Validated: 1
EndChar

StartChar: ccedilla
Encoding: 231 231 167
Width: 852
Flags: W
LayerCount: 2
Fore
SplineSet
256 -128 m 1,0,-1
 256 0 l 1,1,-1
 128 0 l 2,2,3
 74 0 74 0 37 37 c 0,4,5
 0 75 0 75 0 128 c 2,6,-1
 0 512 l 2,7,8
 0 565 0 565 37 602 c 0,9,10
 75 640 75 640 128 640 c 2,11,-1
 512 640 l 2,12,13
 565 640 565 640 602 602 c 0,14,15
 640 564 640 564 640 512 c 2,16,-1
 640 384 l 1,17,-1
 512 384 l 1,18,-1
 512 512 l 1,19,-1
 128 512 l 1,20,-1
 128 128 l 1,21,-1
 512 128 l 1,22,-1
 512 256 l 1,23,-1
 640 256 l 1,24,-1
 640 128 l 2,25,26
 640 74 640 74 602 37 c 256,27,28
 564 0 564 0 512 0 c 2,29,-1
 384 0 l 1,30,31
 384 -53 384 -53 346 -90 c 0,32,33
 308 -128 308 -128 256 -128 c 1,34,-1
 256 -128 l 1,0,-1
EndSplineSet
Validated: 5
EndChar

StartChar: egrave
Encoding: 232 232 168
Width: 852
Flags: W
LayerCount: 2
Fore
SplineSet
128 0 m 2,0,1
 74 0 74 0 37 37 c 0,2,3
 0 75 0 75 0 128 c 2,4,-1
 0 512 l 2,5,6
 0 565 0 565 37 602 c 0,7,8
 75 640 75 640 128 640 c 2,9,-1
 640 640 l 1,10,-1
 640 512 l 1,11,-1
 128 512 l 1,12,-1
 128 384 l 1,13,-1
 640 384 l 1,14,-1
 640 256 l 1,15,-1
 128 256 l 1,16,-1
 128 128 l 1,17,-1
 640 128 l 1,18,-1
 640 0 l 1,19,-1
 128 0 l 2,0,1
0 768 m 1,20,-1
 0 896 l 1,21,-1
 128 896 l 2,22,23
 181 896 181 896 218 858 c 0,24,25
 256 820 256 820 256 768 c 1,26,-1
 0 768 l 1,20,-1
EndSplineSet
Validated: 1
EndChar

StartChar: eacute
Encoding: 233 233 169
Width: 852
Flags: W
LayerCount: 2
Fore
SplineSet
128 0 m 2,0,1
 74 0 74 0 37 37 c 0,2,3
 0 75 0 75 0 128 c 2,4,-1
 0 512 l 2,5,6
 0 565 0 565 37 602 c 0,7,8
 75 640 75 640 128 640 c 2,9,-1
 640 640 l 1,10,-1
 640 512 l 1,11,-1
 128 512 l 1,12,-1
 128 384 l 1,13,-1
 640 384 l 1,14,-1
 640 256 l 1,15,-1
 128 256 l 1,16,-1
 128 128 l 1,17,-1
 640 128 l 1,18,-1
 640 0 l 1,19,-1
 128 0 l 2,0,1
384 768 m 1,20,21
 384 821 384 821 421 858 c 0,22,23
 459 896 459 896 512 896 c 2,24,-1
 640 896 l 1,25,-1
 640 768 l 1,26,-1
 384 768 l 1,20,21
EndSplineSet
Validated: 1
EndChar

StartChar: ecircumflex
Encoding: 234 234 170
Width: 852
Flags: W
LayerCount: 2
Fore
SplineSet
128 0 m 2,0,1
 74 0 74 0 37 37 c 0,2,3
 0 75 0 75 0 128 c 2,4,-1
 0 512 l 2,5,6
 0 565 0 565 37 602 c 0,7,8
 75 640 75 640 128 640 c 2,9,-1
 640 640 l 1,10,-1
 640 512 l 1,11,-1
 128 512 l 1,12,-1
 128 384 l 1,13,-1
 640 384 l 1,14,-1
 640 256 l 1,15,-1
 128 256 l 1,16,-1
 128 128 l 1,17,-1
 640 128 l 1,18,-1
 640 0 l 1,19,-1
 128 0 l 2,0,1
0 768 m 1,20,21
 0 821 0 821 37 858 c 0,22,23
 75 896 75 896 128 896 c 2,24,-1
 512 896 l 2,25,26
 565 896 565 896 602 858 c 0,27,28
 640 820 640 820 640 768 c 1,29,-1
 0 768 l 1,20,21
EndSplineSet
Validated: 1
EndChar

StartChar: edieresis
Encoding: 235 235 171
Width: 852
Flags: W
LayerCount: 2
Fore
SplineSet
128 0 m 2,0,1
 74 0 74 0 37 37 c 0,2,3
 0 75 0 75 0 128 c 2,4,-1
 0 512 l 2,5,6
 0 565 0 565 37 602 c 0,7,8
 75 640 75 640 128 640 c 2,9,-1
 640 640 l 1,10,-1
 640 512 l 1,11,-1
 128 512 l 1,12,-1
 128 384 l 1,13,-1
 640 384 l 1,14,-1
 640 256 l 1,15,-1
 128 256 l 1,16,-1
 128 128 l 1,17,-1
 640 128 l 1,18,-1
 640 0 l 1,19,-1
 128 0 l 2,0,1
64 768 m 1,20,21
 37 768 37 768 18 786 c 0,22,23
 0 805 0 805 0 832 c 0,24,25
 0 858 0 858 18 877 c 0,26,27
 37 896 37 896 64 896 c 0,28,29
 90 896 90 896 109 877 c 256,30,31
 128 858 128 858 128 832 c 0,32,33
 128 805 128 805 109 786 c 0,34,35
 90 768 90 768 64 768 c 1,36,-1
 64 768 l 1,20,21
576 768 m 1,37,38
 549 768 549 768 530 786 c 0,39,40
 512 805 512 805 512 832 c 0,41,42
 512 858 512 858 530 877 c 0,43,44
 549 896 549 896 576 896 c 0,45,46
 602 896 602 896 621 877 c 256,47,48
 640 858 640 858 640 832 c 0,49,50
 640 805 640 805 621 786 c 0,51,52
 602 768 602 768 576 768 c 1,53,-1
 576 768 l 1,37,38
EndSplineSet
Validated: 5
EndChar

StartChar: igrave
Encoding: 236 236 172
Width: 468
Flags: W
LayerCount: 2
Fore
SplineSet
0 0 m 1,0,-1
 0 640 l 1,1,-1
 128 640 l 1,2,-1
 128 0 l 1,3,-1
 0 0 l 1,0,-1
0 768 m 1,4,-1
 0 896 l 1,5,-1
 128 896 l 2,6,7
 181 896 181 896 218 858 c 0,8,9
 256 820 256 820 256 768 c 1,10,-1
 0 768 l 1,4,-1
EndSplineSet
Validated: 1
EndChar

StartChar: iacute
Encoding: 237 237 173
Width: 468
Flags: W
LayerCount: 2
Fore
SplineSet
0 0 m 1,0,-1
 0 640 l 1,1,-1
 128 640 l 1,2,-1
 128 0 l 1,3,-1
 0 0 l 1,0,-1
0 768 m 1,4,5
 0 821 0 821 37 858 c 0,6,7
 75 896 75 896 128 896 c 2,8,-1
 256 896 l 1,9,-1
 256 768 l 1,10,-1
 0 768 l 1,4,5
EndSplineSet
Validated: 1
EndChar

StartChar: icircumflex
Encoding: 238 238 174
Width: 340
Flags: W
LayerCount: 2
Fore
SplineSet
0 0 m 1,0,-1
 0 640 l 1,1,-1
 128 640 l 1,2,-1
 128 0 l 1,3,-1
 0 0 l 1,0,-1
0 768 m 1,4,5
 0 794 0 794 18 813 c 0,6,7
 37 832 37 832 64 832 c 0,8,9
 90 832 90 832 109 813 c 256,10,11
 128 794 128 794 128 768 c 1,12,-1
 0 768 l 1,4,5
EndSplineSet
Validated: 1
EndChar

StartChar: idieresis
Encoding: 239 239 175
Width: 468
Flags: W
LayerCount: 2
Fore
SplineSet
0 0 m 1,0,-1
 0 640 l 1,1,-1
 128 640 l 1,2,-1
 128 0 l 1,3,-1
 0 0 l 1,0,-1
-64 768 m 1,4,5
 -90 768 -90 768 -109 786 c 0,6,7
 -128 805 -128 805 -128 832 c 0,8,9
 -128 858 -128 858 -109 877 c 256,10,11
 -90 896 -90 896 -64 896 c 0,12,13
 -37 896 -37 896 -18 877 c 0,14,15
 0 858 0 858 0 832 c 0,16,17
 0 805 0 805 -18 786 c 0,18,19
 -37 768 -37 768 -64 768 c 1,20,-1
 -64 768 l 1,4,5
192 768 m 1,21,22
 165 768 165 768 146 786 c 0,23,24
 128 805 128 805 128 832 c 0,25,26
 128 858 128 858 146 877 c 0,27,28
 165 896 165 896 192 896 c 0,29,30
 218 896 218 896 237 877 c 256,31,32
 256 858 256 858 256 832 c 0,33,34
 256 805 256 805 237 786 c 0,35,36
 218 768 218 768 192 768 c 1,37,-1
 192 768 l 1,21,22
EndSplineSet
Validated: 5
EndChar

StartChar: eth
Encoding: 240 240 176
Width: 852
Flags: W
LayerCount: 2
Fore
SplineSet
512 128 m 1,0,-1
 512 256 l 1,1,-1
 128 256 l 1,2,-1
 128 128 l 1,3,-1
 512 128 l 1,0,-1
128 0 m 2,4,5
 74 0 74 0 37 37 c 0,6,7
 0 75 0 75 0 128 c 2,8,-1
 0 256 l 2,9,10
 0 309 0 309 37 346 c 0,11,12
 75 384 75 384 128 384 c 2,13,-1
 512 384 l 1,14,-1
 512 512 l 1,15,-1
 384 512 l 1,16,17
 384 458 384 458 346 421 c 256,18,19
 308 384 308 384 256 384 c 1,20,-1
 256 512 l 1,21,-1
 128 512 l 1,22,-1
 128 640 l 1,23,-1
 256 640 l 1,24,25
 256 693 256 693 293 730 c 0,26,27
 331 768 331 768 384 768 c 1,28,-1
 384 640 l 1,29,-1
 512 640 l 2,30,31
 565 640 565 640 602 602 c 0,32,33
 640 564 640 564 640 512 c 2,34,-1
 640 128 l 2,35,36
 640 74 640 74 602 37 c 256,37,38
 564 0 564 0 512 0 c 2,39,-1
 128 0 l 2,4,5
EndSplineSet
Validated: 5
EndChar

StartChar: ntilde
Encoding: 241 241 177
Width: 852
Flags: W
LayerCount: 2
Fore
SplineSet
0 0 m 1,0,-1
 0 640 l 1,1,-1
 512 640 l 2,2,3
 565 640 565 640 602 602 c 0,4,5
 640 564 640 564 640 512 c 2,6,-1
 640 0 l 1,7,-1
 512 0 l 1,8,-1
 512 512 l 1,9,-1
 128 512 l 1,10,-1
 128 0 l 1,11,-1
 0 0 l 1,0,-1
0 768 m 1,12,13
 0 821 0 821 37 858 c 0,14,15
 75 896 75 896 128 896 c 2,16,-1
 256 896 l 2,17,18
 282 896 282 896 301 877 c 256,19,20
 320 858 320 858 320 832 c 0,21,22
 320 805 320 805 301 786 c 0,23,24
 282 768 282 768 256 768 c 2,25,-1
 0 768 l 1,12,13
384 768 m 2,26,27
 357 768 357 768 338 786 c 0,28,29
 320 805 320 805 320 832 c 0,30,31
 320 858 320 858 338 877 c 0,32,33
 357 896 357 896 384 896 c 2,34,-1
 640 896 l 1,35,36
 640 842 640 842 602 805 c 256,37,38
 564 768 564 768 512 768 c 2,39,-1
 384 768 l 2,26,27
EndSplineSet
Validated: 5
EndChar

StartChar: ograve
Encoding: 242 242 178
Width: 852
Flags: W
LayerCount: 2
Fore
SplineSet
512 128 m 1,0,-1
 512 512 l 1,1,-1
 128 512 l 1,2,-1
 128 128 l 1,3,-1
 512 128 l 1,0,-1
128 0 m 2,4,5
 74 0 74 0 37 37 c 0,6,7
 0 75 0 75 0 128 c 2,8,-1
 0 512 l 2,9,10
 0 565 0 565 37 602 c 0,11,12
 75 640 75 640 128 640 c 2,13,-1
 512 640 l 2,14,15
 565 640 565 640 602 602 c 0,16,17
 640 564 640 564 640 512 c 2,18,-1
 640 128 l 2,19,20
 640 74 640 74 602 37 c 256,21,22
 564 0 564 0 512 0 c 2,23,-1
 128 0 l 2,4,5
0 768 m 1,24,-1
 0 896 l 1,25,-1
 128 896 l 2,26,27
 181 896 181 896 218 858 c 0,28,29
 256 820 256 820 256 768 c 1,30,-1
 0 768 l 1,24,-1
EndSplineSet
Validated: 1
EndChar

StartChar: oacute
Encoding: 243 243 179
Width: 852
Flags: W
LayerCount: 2
Fore
SplineSet
512 128 m 1,0,-1
 512 512 l 1,1,-1
 128 512 l 1,2,-1
 128 128 l 1,3,-1
 512 128 l 1,0,-1
128 0 m 2,4,5
 74 0 74 0 37 37 c 0,6,7
 0 75 0 75 0 128 c 2,8,-1
 0 512 l 2,9,10
 0 565 0 565 37 602 c 0,11,12
 75 640 75 640 128 640 c 2,13,-1
 512 640 l 2,14,15
 565 640 565 640 602 602 c 0,16,17
 640 564 640 564 640 512 c 2,18,-1
 640 128 l 2,19,20
 640 74 640 74 602 37 c 256,21,22
 564 0 564 0 512 0 c 2,23,-1
 128 0 l 2,4,5
384 768 m 1,24,25
 384 821 384 821 421 858 c 0,26,27
 459 896 459 896 512 896 c 2,28,-1
 640 896 l 1,29,-1
 640 768 l 1,30,-1
 384 768 l 1,24,25
EndSplineSet
Validated: 1
EndChar

StartChar: ocircumflex
Encoding: 244 244 180
Width: 852
Flags: W
LayerCount: 2
Fore
SplineSet
512 128 m 1,0,-1
 512 512 l 1,1,-1
 128 512 l 1,2,-1
 128 128 l 1,3,-1
 512 128 l 1,0,-1
128 0 m 2,4,5
 74 0 74 0 37 37 c 0,6,7
 0 75 0 75 0 128 c 2,8,-1
 0 512 l 2,9,10
 0 565 0 565 37 602 c 0,11,12
 75 640 75 640 128 640 c 2,13,-1
 512 640 l 2,14,15
 565 640 565 640 602 602 c 0,16,17
 640 564 640 564 640 512 c 2,18,-1
 640 128 l 2,19,20
 640 74 640 74 602 37 c 256,21,22
 564 0 564 0 512 0 c 2,23,-1
 128 0 l 2,4,5
0 768 m 1,24,25
 0 821 0 821 37 858 c 0,26,27
 75 896 75 896 128 896 c 2,28,-1
 512 896 l 2,29,30
 565 896 565 896 602 858 c 0,31,32
 640 820 640 820 640 768 c 1,33,-1
 0 768 l 1,24,25
EndSplineSet
Validated: 1
EndChar

StartChar: otilde
Encoding: 245 245 181
Width: 852
Flags: W
LayerCount: 2
Fore
SplineSet
512 128 m 1,0,-1
 512 512 l 1,1,-1
 128 512 l 1,2,-1
 128 128 l 1,3,-1
 512 128 l 1,0,-1
128 0 m 2,4,5
 74 0 74 0 37 37 c 0,6,7
 0 75 0 75 0 128 c 2,8,-1
 0 512 l 2,9,10
 0 565 0 565 37 602 c 0,11,12
 75 640 75 640 128 640 c 2,13,-1
 512 640 l 2,14,15
 565 640 565 640 602 602 c 0,16,17
 640 564 640 564 640 512 c 2,18,-1
 640 128 l 2,19,20
 640 74 640 74 602 37 c 256,21,22
 564 0 564 0 512 0 c 2,23,-1
 128 0 l 2,4,5
0 768 m 1,24,25
 0 821 0 821 37 858 c 0,26,27
 75 896 75 896 128 896 c 2,28,-1
 256 896 l 2,29,30
 282 896 282 896 301 877 c 256,31,32
 320 858 320 858 320 832 c 0,33,34
 320 805 320 805 301 786 c 0,35,36
 282 768 282 768 256 768 c 2,37,-1
 0 768 l 1,24,25
384 768 m 2,38,39
 357 768 357 768 338 786 c 0,40,41
 320 805 320 805 320 832 c 0,42,43
 320 858 320 858 338 877 c 0,44,45
 357 896 357 896 384 896 c 2,46,-1
 640 896 l 1,47,48
 640 842 640 842 602 805 c 256,49,50
 564 768 564 768 512 768 c 2,51,-1
 384 768 l 2,38,39
EndSplineSet
Validated: 5
EndChar

StartChar: odieresis
Encoding: 246 246 182
Width: 852
Flags: W
LayerCount: 2
Fore
SplineSet
512 128 m 1,0,-1
 512 512 l 1,1,-1
 128 512 l 1,2,-1
 128 128 l 1,3,-1
 512 128 l 1,0,-1
128 0 m 2,4,5
 74 0 74 0 37 37 c 0,6,7
 0 75 0 75 0 128 c 2,8,-1
 0 512 l 2,9,10
 0 565 0 565 37 602 c 0,11,12
 75 640 75 640 128 640 c 2,13,-1
 512 640 l 2,14,15
 565 640 565 640 602 602 c 0,16,17
 640 564 640 564 640 512 c 2,18,-1
 640 128 l 2,19,20
 640 74 640 74 602 37 c 256,21,22
 564 0 564 0 512 0 c 2,23,-1
 128 0 l 2,4,5
64 768 m 1,24,25
 37 768 37 768 18 786 c 0,26,27
 0 805 0 805 0 832 c 0,28,29
 0 858 0 858 18 877 c 0,30,31
 37 896 37 896 64 896 c 0,32,33
 90 896 90 896 109 877 c 256,34,35
 128 858 128 858 128 832 c 0,36,37
 128 805 128 805 109 786 c 0,38,39
 90 768 90 768 64 768 c 1,40,-1
 64 768 l 1,24,25
576 768 m 1,41,42
 549 768 549 768 530 786 c 0,43,44
 512 805 512 805 512 832 c 0,45,46
 512 858 512 858 530 877 c 0,47,48
 549 896 549 896 576 896 c 0,49,50
 602 896 602 896 621 877 c 256,51,52
 640 858 640 858 640 832 c 0,53,54
 640 805 640 805 621 786 c 0,55,56
 602 768 602 768 576 768 c 1,57,-1
 576 768 l 1,41,42
EndSplineSet
Validated: 5
EndChar

StartChar: divide
Encoding: 247 247 183
Width: 852
Flags: W
LayerCount: 2
Fore
SplineSet
320 0 m 1,0,1
 293 0 293 0 274 18 c 0,2,3
 256 37 256 37 256 64 c 0,4,5
 256 90 256 90 274 109 c 0,6,7
 293 128 293 128 320 128 c 0,8,9
 346 128 346 128 365 109 c 256,10,11
 384 90 384 90 384 64 c 0,12,13
 384 37 384 37 365 18 c 0,14,15
 346 0 346 0 320 0 c 1,16,-1
 320 0 l 1,0,1
0 256 m 1,17,-1
 0 384 l 1,18,-1
 640 384 l 1,19,-1
 640 256 l 1,20,-1
 0 256 l 1,17,-1
320 512 m 1,21,22
 293 512 293 512 274 530 c 0,23,24
 256 549 256 549 256 576 c 0,25,26
 256 602 256 602 274 621 c 0,27,28
 293 640 293 640 320 640 c 0,29,30
 346 640 346 640 365 621 c 256,31,32
 384 602 384 602 384 576 c 0,33,34
 384 549 384 549 365 530 c 0,35,36
 346 512 346 512 320 512 c 1,37,-1
 320 512 l 1,21,22
EndSplineSet
Validated: 5
EndChar

StartChar: oslash
Encoding: 248 248 184
Width: 852
Flags: W
LayerCount: 2
Fore
SplineSet
512 128 m 1,0,-1
 512 384 l 1,1,2
 458 384 458 384 421 421 c 0,3,4
 384 459 384 459 384 512 c 1,5,-1
 128 512 l 1,6,-1
 128 256 l 1,7,8
 181 256 181 256 218 218 c 0,9,10
 256 180 256 180 256 128 c 1,11,-1
 512 128 l 1,0,-1
128 0 m 2,12,13
 74 0 74 0 37 37 c 0,14,15
 0 75 0 75 0 128 c 2,16,-1
 0 512 l 2,17,18
 0 565 0 565 37 602 c 0,19,20
 75 640 75 640 128 640 c 2,21,-1
 512 640 l 2,22,23
 565 640 565 640 602 602 c 0,24,25
 640 564 640 564 640 512 c 2,26,-1
 640 128 l 2,27,28
 640 74 640 74 602 37 c 256,29,30
 564 0 564 0 512 0 c 2,31,-1
 128 0 l 2,12,13
EndSplineSet
Validated: 1
EndChar

StartChar: ugrave
Encoding: 249 249 185
Width: 852
Flags: W
LayerCount: 2
Fore
SplineSet
128 0 m 2,0,1
 74 0 74 0 37 37 c 0,2,3
 0 75 0 75 0 128 c 2,4,-1
 0 640 l 1,5,-1
 128 640 l 1,6,-1
 128 128 l 1,7,-1
 512 128 l 1,8,-1
 512 640 l 1,9,-1
 640 640 l 1,10,-1
 640 0 l 1,11,-1
 128 0 l 2,0,1
0 768 m 1,12,-1
 0 896 l 1,13,-1
 128 896 l 2,14,15
 181 896 181 896 218 858 c 0,16,17
 256 820 256 820 256 768 c 1,18,-1
 0 768 l 1,12,-1
EndSplineSet
Validated: 1
EndChar

StartChar: uacute
Encoding: 250 250 186
Width: 852
Flags: W
LayerCount: 2
Fore
SplineSet
128 0 m 2,0,1
 74 0 74 0 37 37 c 0,2,3
 0 75 0 75 0 128 c 2,4,-1
 0 640 l 1,5,-1
 128 640 l 1,6,-1
 128 128 l 1,7,-1
 512 128 l 1,8,-1
 512 640 l 1,9,-1
 640 640 l 1,10,-1
 640 0 l 1,11,-1
 128 0 l 2,0,1
384 768 m 1,12,13
 384 821 384 821 421 858 c 0,14,15
 459 896 459 896 512 896 c 2,16,-1
 640 896 l 1,17,-1
 640 768 l 1,18,-1
 384 768 l 1,12,13
EndSplineSet
Validated: 1
EndChar

StartChar: ucircumflex
Encoding: 251 251 187
Width: 852
Flags: W
LayerCount: 2
Fore
SplineSet
128 0 m 2,0,1
 74 0 74 0 37 37 c 0,2,3
 0 75 0 75 0 128 c 2,4,-1
 0 640 l 1,5,-1
 128 640 l 1,6,-1
 128 128 l 1,7,-1
 512 128 l 1,8,-1
 512 640 l 1,9,-1
 640 640 l 1,10,-1
 640 0 l 1,11,-1
 128 0 l 2,0,1
0 768 m 1,12,13
 0 821 0 821 37 858 c 0,14,15
 75 896 75 896 128 896 c 2,16,-1
 512 896 l 2,17,18
 565 896 565 896 602 858 c 0,19,20
 640 820 640 820 640 768 c 1,21,-1
 0 768 l 1,12,13
EndSplineSet
Validated: 1
EndChar

StartChar: udieresis
Encoding: 252 252 188
Width: 852
Flags: W
LayerCount: 2
Fore
SplineSet
128 0 m 2,0,1
 74 0 74 0 37 37 c 0,2,3
 0 75 0 75 0 128 c 2,4,-1
 0 640 l 1,5,-1
 128 640 l 1,6,-1
 128 128 l 1,7,-1
 512 128 l 1,8,-1
 512 640 l 1,9,-1
 640 640 l 1,10,-1
 640 0 l 1,11,-1
 128 0 l 2,0,1
64 768 m 1,12,13
 37 768 37 768 18 786 c 0,14,15
 0 805 0 805 0 832 c 0,16,17
 0 858 0 858 18 877 c 0,18,19
 37 896 37 896 64 896 c 0,20,21
 90 896 90 896 109 877 c 256,22,23
 128 858 128 858 128 832 c 0,24,25
 128 805 128 805 109 786 c 0,26,27
 90 768 90 768 64 768 c 1,28,-1
 64 768 l 1,12,13
576 768 m 1,29,30
 549 768 549 768 530 786 c 0,31,32
 512 805 512 805 512 832 c 0,33,34
 512 858 512 858 530 877 c 0,35,36
 549 896 549 896 576 896 c 0,37,38
 602 896 602 896 621 877 c 256,39,40
 640 858 640 858 640 832 c 0,41,42
 640 805 640 805 621 786 c 0,43,44
 602 768 602 768 576 768 c 1,45,-1
 576 768 l 1,29,30
EndSplineSet
Validated: 5
EndChar

StartChar: yacute
Encoding: 253 253 189
Width: 852
Flags: W
LayerCount: 2
Fore
SplineSet
256 0 m 1,0,-1
 256 256 l 1,1,-1
 128 256 l 2,2,3
 74 256 74 256 37 293 c 0,4,5
 0 331 0 331 0 384 c 2,6,-1
 0 640 l 1,7,-1
 128 640 l 1,8,-1
 128 384 l 1,9,-1
 512 384 l 1,10,-1
 512 640 l 1,11,-1
 640 640 l 1,12,-1
 640 384 l 2,13,14
 640 330 640 330 602 293 c 256,15,16
 564 256 564 256 512 256 c 2,17,-1
 384 256 l 1,18,-1
 384 0 l 1,19,-1
 256 0 l 1,0,-1
128 640 m 1,20,21
 128 693 128 693 165 730 c 0,22,23
 203 768 203 768 256 768 c 2,24,-1
 384 768 l 1,25,-1
 384 640 l 1,26,-1
 128 640 l 1,20,21
EndSplineSet
Validated: 5
EndChar

StartChar: thorn
Encoding: 254 254 190
Width: 596
Flags: W
LayerCount: 2
Fore
SplineSet
256 256 m 1,0,-1
 256 384 l 1,1,-1
 128 384 l 1,2,-1
 128 256 l 1,3,-1
 256 256 l 1,0,-1
0 0 m 1,4,-1
 0 640 l 1,5,-1
 128 640 l 1,6,-1
 128 512 l 1,7,-1
 256 512 l 2,8,9
 309 512 309 512 346 474 c 0,10,11
 384 436 384 436 384 384 c 2,12,-1
 384 256 l 2,13,14
 384 202 384 202 346 165 c 256,15,16
 308 128 308 128 256 128 c 2,17,-1
 128 128 l 1,18,-1
 128 0 l 1,19,-1
 0 0 l 1,4,-1
EndSplineSet
Validated: 1
EndChar

StartChar: ydieresis
Encoding: 255 255 191
Width: 852
Flags: W
LayerCount: 2
Fore
SplineSet
256 0 m 1,0,-1
 256 256 l 1,1,-1
 128 256 l 2,2,3
 74 256 74 256 37 293 c 0,4,5
 0 331 0 331 0 384 c 2,6,-1
 0 640 l 1,7,-1
 128 640 l 1,8,-1
 128 384 l 1,9,-1
 512 384 l 1,10,-1
 512 640 l 1,11,-1
 640 640 l 1,12,-1
 640 384 l 2,13,14
 640 330 640 330 602 293 c 256,15,16
 564 256 564 256 512 256 c 2,17,-1
 384 256 l 1,18,-1
 384 0 l 1,19,-1
 256 0 l 1,0,-1
EndSplineSet
Validated: 1
EndChar

StartChar: Uring
Encoding: 366 366 192
Width: 852
Flags: W
LayerCount: 2
Fore
SplineSet
128 0 m 2,0,1
 74 0 74 0 37 37 c 0,2,3
 0 75 0 75 0 128 c 2,4,-1
 0 640 l 1,5,-1
 128 640 l 1,6,-1
 128 128 l 1,7,-1
 512 128 l 1,8,-1
 512 640 l 1,9,-1
 640 640 l 1,10,-1
 640 0 l 1,11,-1
 128 0 l 2,0,1
EndSplineSet
Validated: 1
EndChar

StartChar: uring
Encoding: 367 367 193
Width: 852
Flags: W
LayerCount: 2
Fore
SplineSet
128 0 m 2,0,1
 74 0 74 0 37 37 c 0,2,3
 0 75 0 75 0 128 c 2,4,-1
 0 640 l 1,5,-1
 128 640 l 1,6,-1
 128 128 l 1,7,-1
 512 128 l 1,8,-1
 512 640 l 1,9,-1
 640 640 l 1,10,-1
 640 0 l 1,11,-1
 128 0 l 2,0,1
EndSplineSet
Validated: 1
EndChar

StartChar: Ydieresis
Encoding: 376 376 194
Width: 852
Flags: W
LayerCount: 2
Fore
SplineSet
256 0 m 1,0,-1
 256 256 l 1,1,-1
 128 256 l 2,2,3
 74 256 74 256 37 293 c 0,4,5
 0 331 0 331 0 384 c 2,6,-1
 0 512 l 1,7,-1
 128 512 l 1,8,-1
 128 384 l 1,9,-1
 512 384 l 1,10,-1
 512 512 l 1,11,-1
 640 512 l 1,12,-1
 640 384 l 2,13,14
 640 330 640 330 602 293 c 256,15,16
 564 256 564 256 512 256 c 2,17,-1
 384 256 l 1,18,-1
 384 0 l 1,19,-1
 256 0 l 1,0,-1
64 640 m 1,20,21
 37 640 37 640 18 658 c 0,22,23
 0 677 0 677 0 704 c 0,24,25
 0 730 0 730 18 749 c 0,26,27
 37 768 37 768 64 768 c 0,28,29
 90 768 90 768 109 749 c 256,30,31
 128 730 128 730 128 704 c 0,32,33
 128 677 128 677 109 658 c 0,34,35
 90 640 90 640 64 640 c 1,36,-1
 64 640 l 1,20,21
576 640 m 1,37,38
 549 640 549 640 530 658 c 0,39,40
 512 677 512 677 512 704 c 0,41,42
 512 730 512 730 530 749 c 0,43,44
 549 768 549 768 576 768 c 0,45,46
 602 768 602 768 621 749 c 256,47,48
 640 730 640 730 640 704 c 0,49,50
 640 677 640 677 621 658 c 0,51,52
 602 640 602 640 576 640 c 1,53,-1
 576 640 l 1,37,38
EndSplineSet
Validated: 5
EndChar

StartChar: uni1E9E
Encoding: 7838 7838 195
Width: 852
Flags: W
LayerCount: 2
Fore
SplineSet
384 384 m 1,0,-1
 384 512 l 1,1,-1
 128 512 l 1,2,-1
 128 384 l 1,3,-1
 384 384 l 1,0,-1
0 0 m 1,4,-1
 0 512 l 2,5,6
 0 565 0 565 37 602 c 0,7,8
 75 640 75 640 128 640 c 2,9,-1
 384 640 l 2,10,11
 437 640 437 640 474 602 c 0,12,13
 512 564 512 564 512 512 c 2,14,-1
 512 384 l 1,15,16
 565 384 565 384 602 346 c 0,17,18
 640 308 640 308 640 256 c 2,19,-1
 640 128 l 2,20,21
 640 74 640 74 602 37 c 256,22,23
 564 0 564 0 512 0 c 2,24,-1
 256 0 l 1,25,-1
 256 128 l 1,26,-1
 512 128 l 1,27,-1
 512 256 l 1,28,-1
 128 256 l 1,29,-1
 128 0 l 1,30,-1
 0 0 l 1,4,-1
EndSplineSet
Validated: 1
EndChar

StartChar: emdash
Encoding: 8212 8212 196
Width: 980
Flags: W
LayerCount: 2
Fore
SplineSet
0 256 m 1,0,-1
 0 384 l 1,1,-1
 768 384 l 1,2,-1
 768 256 l 1,3,-1
 0 256 l 1,0,-1
EndSplineSet
Validated: 1
EndChar

StartChar: quoteleft
Encoding: 8216 8216 197
Width: 340
Flags: W
LayerCount: 2
Fore
SplineSet
0 384 m 1,0,-1
 0 512 l 2,1,2
 0 565 0 565 37 602 c 0,3,4
 75 640 75 640 128 640 c 1,5,-1
 128 384 l 1,6,-1
 0 384 l 1,0,-1
EndSplineSet
Validated: 1
EndChar

StartChar: quoteright
Encoding: 8217 8217 198
Width: 340
Flags: W
LayerCount: 2
Fore
SplineSet
0 384 m 1,0,-1
 0 640 l 1,1,-1
 128 640 l 1,2,-1
 128 512 l 2,3,4
 128 458 128 458 90 421 c 256,5,6
 52 384 52 384 0 384 c 1,7,-1
 0 384 l 1,0,-1
EndSplineSet
Validated: 5
EndChar

StartChar: quotesinglbase
Encoding: 8218 8218 199
Width: 340
Flags: W
LayerCount: 2
Fore
SplineSet
0 -128 m 1,0,-1
 0 128 l 1,1,-1
 128 128 l 1,2,-1
 128 0 l 2,3,4
 128 -53 128 -53 90 -90 c 0,5,6
 52 -128 52 -128 0 -128 c 1,7,-1
 0 -128 l 1,0,-1
EndSplineSet
Validated: 5
EndChar

StartChar: quotereversed
Encoding: 8219 8219 200
Width: 340
Flags: W
LayerCount: 2
Fore
SplineSet
128 384 m 1,0,1
 74 384 74 384 37 421 c 0,2,3
 0 459 0 459 0 512 c 2,4,-1
 0 640 l 1,5,-1
 128 640 l 1,6,-1
 128 384 l 1,7,-1
 128 384 l 1,0,1
EndSplineSet
Validated: 5
EndChar

StartChar: quotedblleft
Encoding: 8220 8220 201
Width: 596
Flags: W
LayerCount: 2
Fore
SplineSet
0 384 m 1,0,-1
 0 512 l 2,1,2
 0 565 0 565 37 602 c 0,3,4
 75 640 75 640 128 640 c 1,5,-1
 128 384 l 1,6,-1
 0 384 l 1,0,-1
256 384 m 1,7,-1
 256 512 l 2,8,9
 256 565 256 565 293 602 c 0,10,11
 331 640 331 640 384 640 c 1,12,-1
 384 384 l 1,13,-1
 256 384 l 1,7,-1
EndSplineSet
Validated: 1
EndChar

StartChar: quotedblright
Encoding: 8221 8221 202
Width: 596
Flags: W
LayerCount: 2
Fore
SplineSet
0 384 m 1,0,-1
 0 640 l 1,1,-1
 128 640 l 1,2,-1
 128 512 l 2,3,4
 128 458 128 458 90 421 c 256,5,6
 52 384 52 384 0 384 c 1,7,-1
 0 384 l 1,0,-1
256 384 m 1,8,-1
 256 640 l 1,9,-1
 384 640 l 1,10,-1
 384 512 l 2,11,12
 384 458 384 458 346 421 c 256,13,14
 308 384 308 384 256 384 c 1,15,-1
 256 384 l 1,8,-1
EndSplineSet
Validated: 5
EndChar

StartChar: quotedblbase
Encoding: 8222 8222 203
Width: 596
Flags: W
LayerCount: 2
Fore
SplineSet
0 -128 m 1,0,-1
 0 128 l 1,1,-1
 128 128 l 1,2,-1
 128 0 l 2,3,4
 128 -53 128 -53 90 -90 c 0,5,6
 52 -128 52 -128 0 -128 c 1,7,-1
 0 -128 l 1,0,-1
256 -128 m 1,8,-1
 256 128 l 1,9,-1
 384 128 l 1,10,-1
 384 0 l 2,11,12
 384 -53 384 -53 346 -90 c 0,13,14
 308 -128 308 -128 256 -128 c 1,15,-1
 256 -128 l 1,8,-1
EndSplineSet
Validated: 5
EndChar

StartChar: dagger
Encoding: 8224 8224 204
Width: 596
Flags: W
LayerCount: 2
Fore
SplineSet
128 0 m 1,0,-1
 128 384 l 1,1,-1
 0 384 l 1,2,-1
 0 512 l 1,3,-1
 128 512 l 1,4,-1
 128 768 l 1,5,-1
 256 768 l 1,6,-1
 256 512 l 1,7,-1
 384 512 l 1,8,-1
 384 384 l 1,9,-1
 256 384 l 1,10,-1
 256 0 l 1,11,-1
 128 0 l 1,0,-1
EndSplineSet
Validated: 1
EndChar

StartChar: bullet
Encoding: 8226 8226 205
Width: 340
Flags: W
LayerCount: 2
Fore
SplineSet
64 256 m 1,0,1
 37 256 37 256 18 274 c 0,2,3
 0 293 0 293 0 320 c 0,4,5
 0 346 0 346 18 365 c 0,6,7
 37 384 37 384 64 384 c 0,8,9
 90 384 90 384 109 365 c 256,10,11
 128 346 128 346 128 320 c 0,12,13
 128 293 128 293 109 274 c 0,14,15
 90 256 90 256 64 256 c 1,16,-1
 64 256 l 1,0,1
EndSplineSet
Validated: 5
EndChar

StartChar: ellipsis
Encoding: 8230 8230 206
Width: 852
Flags: W
LayerCount: 2
Fore
SplineSet
64 0 m 1,0,1
 37 0 37 0 18 18 c 0,2,3
 0 37 0 37 0 64 c 0,4,5
 0 90 0 90 18 109 c 0,6,7
 37 128 37 128 64 128 c 0,8,9
 90 128 90 128 109 109 c 256,10,11
 128 90 128 90 128 64 c 0,12,13
 128 37 128 37 109 18 c 0,14,15
 90 0 90 0 64 0 c 1,16,-1
 64 0 l 1,0,1
320 0 m 1,17,18
 293 0 293 0 274 18 c 0,19,20
 256 37 256 37 256 64 c 0,21,22
 256 90 256 90 274 109 c 0,23,24
 293 128 293 128 320 128 c 0,25,26
 346 128 346 128 365 109 c 256,27,28
 384 90 384 90 384 64 c 0,29,30
 384 37 384 37 365 18 c 0,31,32
 346 0 346 0 320 0 c 1,33,-1
 320 0 l 1,17,18
576 0 m 1,34,35
 549 0 549 0 530 18 c 0,36,37
 512 37 512 37 512 64 c 0,38,39
 512 90 512 90 530 109 c 0,40,41
 549 128 549 128 576 128 c 0,42,43
 602 128 602 128 621 109 c 256,44,45
 640 90 640 90 640 64 c 0,46,47
 640 37 640 37 621 18 c 0,48,49
 602 0 602 0 576 0 c 1,50,-1
 576 0 l 1,34,35
EndSplineSet
Validated: 5
EndChar

StartChar: guilsinglleft
Encoding: 8249 8249 207
Width: 468
Flags: W
LayerCount: 2
Fore
SplineSet
128 0 m 2,0,1
 74 0 74 0 37 37 c 0,2,3
 0 75 0 75 0 128 c 2,4,-1
 0 256 l 2,5,6
 0 309 0 309 37 346 c 0,7,8
 75 384 75 384 128 384 c 2,9,-1
 256 384 l 1,10,-1
 256 256 l 1,11,-1
 128 256 l 1,12,-1
 128 128 l 1,13,-1
 256 128 l 1,14,-1
 256 0 l 1,15,-1
 128 0 l 2,0,1
EndSplineSet
Validated: 1
EndChar

StartChar: guilsinglright
Encoding: 8250 8250 208
Width: 468
Flags: W
LayerCount: 2
Fore
SplineSet
0 0 m 1,0,-1
 0 128 l 1,1,-1
 128 128 l 1,2,-1
 128 256 l 1,3,-1
 0 256 l 1,4,-1
 0 384 l 1,5,-1
 128 384 l 2,6,7
 181 384 181 384 218 346 c 0,8,9
 256 308 256 308 256 256 c 2,10,-1
 256 128 l 2,11,12
 256 74 256 74 218 37 c 256,13,14
 180 0 180 0 128 0 c 2,15,-1
 0 0 l 1,0,-1
EndSplineSet
Validated: 1
EndChar

StartChar: Euro
Encoding: 8364 8364 209
Width: 852
Flags: W
LayerCount: 2
Fore
SplineSet
128 0 m 2,0,1
 74 0 74 0 37 37 c 0,2,3
 0 75 0 75 0 128 c 2,4,-1
 0 256 l 1,5,-1
 -128 256 l 1,6,-1
 -128 384 l 1,7,-1
 0 384 l 1,8,-1
 0 512 l 2,9,10
 0 565 0 565 37 602 c 0,11,12
 75 640 75 640 128 640 c 2,13,-1
 640 640 l 1,14,-1
 640 512 l 1,15,-1
 128 512 l 1,16,-1
 128 384 l 1,17,-1
 512 384 l 1,18,-1
 512 256 l 1,19,-1
 128 256 l 1,20,-1
 128 128 l 1,21,-1
 640 128 l 1,22,-1
 640 0 l 1,23,-1
 128 0 l 2,0,1
EndSplineSet
Validated: 1
EndChar

StartChar: trademark
Encoding: 8482 8482 210
Width: 596
Flags: W
LayerCount: 2
Fore
SplineSet
128 256 m 1,0,-1
 128 384 l 1,1,-1
 0 384 l 1,2,-1
 0 512 l 1,3,-1
 256 512 l 2,4,5
 309 512 309 512 346 474 c 0,6,7
 384 436 384 436 384 384 c 2,8,-1
 384 256 l 1,9,-1
 128 256 l 1,0,-1
EndSplineSet
Validated: 1
EndChar

StartChar: uniFB00
Encoding: 64256 64256 211
Width: 852
Flags: W
LayerCount: 2
Fore
SplineSet
0 0 m 1,0,-1
 0 512 l 2,1,2
 0 565 0 565 37 602 c 0,3,4
 75 640 75 640 128 640 c 2,5,-1
 256 640 l 1,6,-1
 256 512 l 1,7,-1
 128 512 l 1,8,-1
 128 384 l 1,9,-1
 384 384 l 1,10,-1
 384 512 l 2,11,12
 384 565 384 565 421 602 c 0,13,14
 459 640 459 640 512 640 c 2,15,-1
 640 640 l 1,16,-1
 640 512 l 1,17,-1
 512 512 l 1,18,-1
 512 384 l 1,19,-1
 640 384 l 1,20,-1
 640 256 l 1,21,-1
 512 256 l 1,22,-1
 512 0 l 1,23,-1
 384 0 l 1,24,-1
 384 256 l 1,25,-1
 128 256 l 1,26,-1
 128 0 l 1,27,-1
 0 0 l 1,0,-1
EndSplineSet
Validated: 1
EndChar

StartChar: uniFB01
Encoding: 64257 64257 212
Width: 724
Flags: W
LayerCount: 2
Fore
SplineSet
0 0 m 1,0,-1
 0 512 l 2,1,2
 0 565 0 565 37 602 c 0,3,4
 75 640 75 640 128 640 c 2,5,-1
 256 640 l 1,6,-1
 256 512 l 1,7,-1
 128 512 l 1,8,-1
 128 384 l 1,9,-1
 512 384 l 1,10,-1
 512 0 l 1,11,-1
 384 0 l 1,12,-1
 384 256 l 1,13,-1
 128 256 l 1,14,-1
 128 0 l 1,15,-1
 0 0 l 1,0,-1
448 512 m 1,16,17
 421 512 421 512 402 530 c 0,18,19
 384 549 384 549 384 576 c 0,20,21
 384 602 384 602 402 621 c 0,22,23
 421 640 421 640 448 640 c 0,24,25
 474 640 474 640 493 621 c 256,26,27
 512 602 512 602 512 576 c 0,28,29
 512 549 512 549 493 530 c 0,30,31
 474 512 474 512 448 512 c 1,32,-1
 448 512 l 1,16,17
EndSplineSet
Validated: 5
EndChar

StartChar: uniFB02
Encoding: 64258 64258 213
Width: 724
Flags: W
LayerCount: 2
Fore
SplineSet
0 0 m 1,0,-1
 0 512 l 2,1,2
 0 565 0 565 37 602 c 0,3,4
 75 640 75 640 128 640 c 2,5,-1
 256 640 l 1,6,-1
 256 512 l 1,7,-1
 128 512 l 1,8,-1
 128 384 l 1,9,-1
 384 384 l 1,10,-1
 384 640 l 1,11,-1
 512 640 l 1,12,-1
 512 0 l 1,13,-1
 384 0 l 1,14,-1
 384 256 l 1,15,-1
 128 256 l 1,16,-1
 128 0 l 1,17,-1
 0 0 l 1,0,-1
EndSplineSet
Validated: 1
EndChar

StartChar: uniFB03
Encoding: 64259 64259 214
Width: 1108
Flags: W
LayerCount: 2
Fore
SplineSet
0 0 m 1,0,-1
 0 512 l 2,1,2
 0 565 0 565 37 602 c 0,3,4
 75 640 75 640 128 640 c 2,5,-1
 256 640 l 1,6,-1
 256 512 l 1,7,-1
 128 512 l 1,8,-1
 128 384 l 1,9,-1
 384 384 l 1,10,-1
 384 512 l 2,11,12
 384 565 384 565 421 602 c 0,13,14
 459 640 459 640 512 640 c 2,15,-1
 640 640 l 1,16,-1
 640 512 l 1,17,-1
 512 512 l 1,18,-1
 512 384 l 1,19,-1
 896 384 l 1,20,-1
 896 0 l 1,21,-1
 768 0 l 1,22,-1
 768 256 l 1,23,-1
 512 256 l 1,24,-1
 512 0 l 1,25,-1
 384 0 l 1,26,-1
 384 256 l 1,27,-1
 128 256 l 1,28,-1
 128 0 l 1,29,-1
 0 0 l 1,0,-1
832 512 m 1,30,31
 805 512 805 512 786 530 c 0,32,33
 768 549 768 549 768 576 c 0,34,35
 768 602 768 602 786 621 c 0,36,37
 805 640 805 640 832 640 c 0,38,39
 858 640 858 640 877 621 c 256,40,41
 896 602 896 602 896 576 c 0,42,43
 896 549 896 549 877 530 c 0,44,45
 858 512 858 512 832 512 c 1,46,-1
 832 512 l 1,30,31
EndSplineSet
Validated: 5
EndChar

StartChar: uniFB04
Encoding: 64260 64260 215
Width: 1108
Flags: W
LayerCount: 2
Fore
SplineSet
0 0 m 1,0,-1
 0 512 l 2,1,2
 0 565 0 565 37 602 c 0,3,4
 75 640 75 640 128 640 c 2,5,-1
 256 640 l 1,6,-1
 256 512 l 1,7,-1
 128 512 l 1,8,-1
 128 384 l 1,9,-1
 384 384 l 1,10,-1
 384 512 l 2,11,12
 384 565 384 565 421 602 c 0,13,14
 459 640 459 640 512 640 c 2,15,-1
 640 640 l 1,16,-1
 640 512 l 1,17,-1
 512 512 l 1,18,-1
 512 384 l 1,19,-1
 768 384 l 1,20,-1
 768 640 l 1,21,-1
 896 640 l 1,22,-1
 896 0 l 1,23,-1
 768 0 l 1,24,-1
 768 256 l 1,25,-1
 512 256 l 1,26,-1
 512 0 l 1,27,-1
 384 0 l 1,28,-1
 384 256 l 1,29,-1
 128 256 l 1,30,-1
 128 0 l 1,31,-1
 0 0 l 1,0,-1
EndSplineSet
Validated: 1
EndChar

StartChar: uniFB06
Encoding: 64262 64262 216
Width: 852
Flags: W
LayerCount: 2
Fore
SplineSet
0 0 m 1,0,-1
 0 128 l 1,1,-1
 128 128 l 2,2,3
 74 128 74 128 37 165 c 0,4,5
 0 203 0 203 0 256 c 256,6,7
 0 309 0 309 37 346 c 0,8,9
 75 384 75 384 128 384 c 2,10,-1
 640 384 l 1,11,-1
 640 256 l 1,12,-1
 512 256 l 1,13,-1
 512 0 l 1,14,-1
 384 0 l 1,15,-1
 384 256 l 1,16,-1
 128 256 l 2,17,18
 181 256 181 256 218 218 c 0,19,20
 256 180 256 180 256 128 c 0,21,22
 256 74 256 74 218 37 c 256,23,24
 180 0 180 0 128 0 c 2,25,-1
 0 0 l 1,0,-1
EndSplineSet
Validated: 1
EndChar

StartChar: imacron
Encoding: 299 299 217
Width: 462
Flags: W
LayerCount: 2
Fore
SplineSet
-64 819 m 2,0,-1
 -64 690 l 0,1,-1
 189 690 l 1,2,-1
 189 818 l 1,3,-1
 -64 819 l 2,0,-1
-6 0 m 1,4,-1
 -6 640 l 1,5,-1
 122 640 l 1,6,-1
 122 0 l 1,7,-1
 -6 0 l 1,4,-1
EndSplineSet
Validated: 9
EndChar

StartChar: amacron
Encoding: 257 257 218
Width: 852
Flags: W
LayerCount: 2
Fore
SplineSet
512 384 m 1,0,-1
 512 512 l 1,1,-1
 128 512 l 1,2,-1
 128 384 l 1,3,-1
 512 384 l 1,0,-1
0 0 m 1,4,-1
 0 512 l 2,5,6
 0 565 0 565 37 602 c 0,7,8
 75 640 75 640 128 640 c 2,9,-1
 512 640 l 2,10,11
 565 640 565 640 602 602 c 0,12,13
 640 564 640 564 640 512 c 2,14,-1
 640 0 l 1,15,-1
 512 0 l 1,16,-1
 512 256 l 1,17,-1
 128 256 l 1,18,-1
 128 0 l 1,19,-1
 0 0 l 1,4,-1
0 768 m 1,20,21
 0 884 l 0,22,23
 0 884 l 2,24,-1
 636 884 l 2,25,26
 636 884 l 0,27,28
 636 768 l 1,29,-1
 0 768 l 1,20,21
EndSplineSet
Validated: 5
EndChar
